<svg xmlns="http://www.w3.org/2000/svg" xmlns:xlink="http://www.w3.org/1999/xlink" version="1.1" id="Layer_1" x="0px" y="0px" viewBox="0 0 1184 364" style="enable-background:new 0 0 1184 364;" xml:space="preserve"><script xmlns=""/>
<style type="text/css">
	.st0{fill:#87c878;}
</style>
<path class="st0" d="M458.5,59.3h7.6v53.9h-7.6l-0.3-10c-1.8,3.4-4.2,6.2-7.4,8.3c-3.2,2.1-6.9,3.2-11.3,3.2c-4,0-7.7-0.7-11.1-2.2  c-3.5-1.5-6.5-3.5-9.1-6.2c-2.6-2.6-4.7-5.7-6.1-9.1c-1.5-3.5-2.2-7.2-2.2-11.1c0-3.9,0.7-7.5,2.2-10.9c1.5-3.4,3.5-6.4,6-9  c2.6-2.6,5.6-4.6,9-6.1c3.4-1.5,7-2.2,10.9-2.2c4.5,0,8.4,1.1,11.8,3.2c3.3,2.1,6,4.9,8,8.4L458.5,59.3z M439.3,107.3  c3.8,0,7.2-0.9,9.9-2.8c2.8-1.9,4.9-4.4,6.4-7.6c1.5-3.2,2.2-6.7,2.2-10.6c0-4-0.8-7.5-2.3-10.7c-1.5-3.2-3.7-5.7-6.4-7.6  c-2.8-1.9-6.1-2.8-9.9-2.8c-3.8,0-7.3,0.9-10.4,2.8c-3.1,1.9-5.6,4.4-7.5,7.6c-1.9,3.2-2.8,6.7-2.8,10.6c0,3.9,1,7.5,2.9,10.7  c1.9,3.2,4.4,5.7,7.6,7.6C432.2,106.4,435.6,107.3,439.3,107.3"/>
<path class="st0" d="M551.9,99.7l6.7,3.7c-2.4,3.4-5.5,6.2-9.3,8.2c-3.8,2-7.8,3.1-12.2,3.1c-5,0-9.5-1.3-13.6-3.8  c-4.1-2.6-7.3-6-9.8-10.3c-2.4-4.3-3.6-9.1-3.6-14.3c0-4,0.7-7.6,2.1-11.1c1.4-3.4,3.3-6.5,5.8-9.1c2.5-2.6,5.3-4.6,8.6-6.1  c3.3-1.5,6.8-2.2,10.5-2.2c4.4,0,8.5,1,12.2,3.1c3.8,2,6.9,4.8,9.3,8.3l-6.7,3.6c-1.9-2.4-4.1-4.2-6.7-5.5c-2.6-1.3-5.3-1.9-8-1.9  c-3.6,0-6.9,1-9.9,2.9c-2.9,1.9-5.3,4.5-7,7.6c-1.7,3.2-2.6,6.6-2.6,10.4c0,3.8,0.9,7.2,2.6,10.4c1.7,3.2,4.1,5.7,7,7.6  c3,1.9,6.2,2.8,9.8,2.8c2.9,0,5.7-0.7,8.3-2.1C548,103.7,550.2,101.9,551.9,99.7"/>
<path class="st0" d="M629,114.6c-5,0-9.5-1.3-13.6-3.8c-4.1-2.6-7.3-6-9.8-10.3c-2.4-4.3-3.6-9-3.6-14.3c0-4,0.7-7.6,2.1-11.1  c1.4-3.4,3.3-6.5,5.8-9.1c2.5-2.6,5.3-4.6,8.6-6.1c3.3-1.5,6.8-2.2,10.5-2.2c4,0,7.7,0.8,11,2.4c3.4,1.6,6.3,3.8,8.7,6.6  c2.4,2.8,4.3,6.2,5.5,10c1.2,3.8,1.8,7.9,1.5,12.4H610c0.4,3.4,1.5,6.5,3.3,9.2c1.7,2.7,4,4.8,6.7,6.4c2.7,1.6,5.7,2.4,9,2.4  c3.6,0,6.8-0.9,9.7-2.8c2.9-1.9,5.2-4.4,7-7.7l7.7,1.8c-2.2,4.8-5.4,8.7-9.8,11.7C639.3,113.1,634.4,114.6,629,114.6 M609.8,83h38.3  c-0.3-3.3-1.3-6.4-3-9.2c-1.8-2.8-4.1-5-6.9-6.7c-2.8-1.7-5.9-2.5-9.2-2.5s-6.4,0.8-9.2,2.5c-2.8,1.6-5,3.8-6.8,6.6  C611.3,76.5,610.2,79.6,609.8,83"/>
<path class="st0" d="M719.5,114.3c-2.9-0.1-5.8-0.6-8.6-1.6c-2.8-1-5.2-2.4-7.3-4.1c-2.1-1.7-3.6-3.7-4.5-5.9l6.5-2.8  c0.6,1.4,1.6,2.7,3.2,3.9c1.6,1.2,3.4,2.1,5.4,2.8c2,0.7,4,1.1,6,1.1c2.2,0,4.2-0.4,6.1-1.1s3.5-1.8,4.7-3.1  c1.2-1.3,1.8-2.9,1.8-4.8c0-2-0.6-3.5-1.9-4.7c-1.3-1.1-2.9-2-4.9-2.7c-2-0.7-4-1.3-6.1-1.9c-3.8-1-7.2-2.2-10.1-3.5  c-2.9-1.3-5.2-2.9-6.8-4.8c-1.6-2-2.5-4.5-2.5-7.6c0-3.3,0.9-6.1,2.8-8.5c1.9-2.4,4.3-4.2,7.3-5.6c3-1.3,6.2-2,9.6-2  c4.4,0,8.4,1,12,2.9c3.6,1.9,6.2,4.4,7.8,7.6l-6.1,3.6c-0.6-1.5-1.7-2.8-3.1-3.8c-1.4-1.1-3-1.9-4.8-2.5c-1.8-0.6-3.6-0.9-5.4-1  c-2.3,0-4.4,0.3-6.4,1c-2,0.7-3.6,1.7-4.8,3.1c-1.2,1.4-1.8,3-1.8,5c0,2,0.6,3.5,1.8,4.5c1.2,1,2.8,1.8,4.8,2.5  c2,0.6,4.3,1.4,6.9,2.2c3.3,1,6.3,2.2,9.2,3.6c2.9,1.3,5.2,3,7,5c1.8,2,2.6,4.5,2.6,7.5c0,3.2-1,6.1-2.9,8.5  c-1.9,2.4-4.5,4.3-7.6,5.5C726.3,113.8,723,114.4,719.5,114.3"/>
<path class="st0" d="M803.5,114.3c-2.9-0.1-5.8-0.6-8.6-1.6c-2.8-1-5.3-2.4-7.3-4.1c-2.1-1.7-3.6-3.7-4.5-5.9l6.5-2.8  c0.6,1.4,1.6,2.7,3.2,3.9c1.6,1.2,3.4,2.1,5.4,2.8c2,0.7,4,1.1,6,1.1c2.2,0,4.2-0.4,6.1-1.1c1.9-0.7,3.5-1.8,4.7-3.1  c1.2-1.3,1.8-2.9,1.8-4.8c0-2-0.6-3.5-1.9-4.7c-1.3-1.1-2.9-2-4.9-2.7c-2-0.7-4-1.3-6.1-1.9c-3.8-1-7.2-2.2-10.1-3.5  c-2.9-1.3-5.2-2.9-6.8-4.8c-1.6-2-2.5-4.5-2.5-7.6c0-3.3,0.9-6.1,2.8-8.5c1.9-2.4,4.3-4.2,7.3-5.6c3-1.3,6.2-2,9.6-2  c4.4,0,8.4,1,12,2.9c3.6,1.9,6.2,4.4,7.8,7.6l-6.1,3.6c-0.6-1.5-1.7-2.8-3.1-3.8c-1.4-1.1-3-1.9-4.8-2.5c-1.8-0.6-3.6-0.9-5.4-1  c-2.3,0-4.4,0.3-6.4,1c-2,0.7-3.6,1.7-4.8,3.1c-1.2,1.4-1.8,3-1.8,5c0,2,0.6,3.5,1.8,4.5c1.2,1,2.8,1.8,4.8,2.5  c2,0.6,4.3,1.4,6.9,2.2c3.3,1,6.3,2.2,9.2,3.6c2.9,1.3,5.2,3,7,5c1.8,2,2.6,4.5,2.6,7.5c0,3.2-1,6.1-2.9,8.5  c-1.9,2.4-4.5,4.3-7.6,5.5C810.3,113.8,807,114.4,803.5,114.3"/>
<path class="st0" d="M894.1,114.6c-5,0-9.5-1.3-13.6-3.8c-4.1-2.6-7.3-6-9.8-10.3c-2.4-4.3-3.6-9-3.6-14.3c0-4,0.7-7.6,2.1-11.1  c1.4-3.4,3.3-6.5,5.8-9.1s5.3-4.6,8.6-6.1c3.3-1.5,6.8-2.2,10.5-2.2c5,0,9.5,1.3,13.6,3.8c4.1,2.6,7.3,6,9.8,10.3  c2.4,4.3,3.6,9.1,3.6,14.3c0,3.9-0.7,7.6-2.1,11c-1.4,3.4-3.3,6.4-5.8,9c-2.5,2.6-5.3,4.6-8.6,6.1  C901.4,113.9,897.9,114.6,894.1,114.6 M894.1,107.1c3.7,0,7-1,9.9-2.9c2.9-1.9,5.2-4.5,7-7.6c1.7-3.2,2.6-6.6,2.6-10.3  c0-3.8-0.9-7.3-2.6-10.4c-1.7-3.2-4.1-5.7-7-7.6c-2.9-1.9-6.2-2.9-9.8-2.9c-3.7,0-7,1-9.9,2.9c-2.9,1.9-5.3,4.5-7,7.6  c-1.7,3.2-2.6,6.6-2.6,10.4c0,3.9,0.9,7.4,2.6,10.5c1.8,3.1,4.1,5.6,7.1,7.5C887.4,106.1,890.6,107.1,894.1,107.1"/>
<path class="st0" d="M478,273.6l25.5,13.8c-4.7,6.5-10.7,11.6-17.8,15.5c-7.1,3.9-14.9,5.9-23.4,5.9c-9.5,0-18.1-2.4-25.9-7.3  c-7.8-4.9-14-11.4-18.6-19.6c-4.6-8.2-7-17.3-7-27.2c0-7.5,1.3-14.6,4-21.2c2.7-6.5,6.4-12.3,11.1-17.3c4.7-5,10.2-8.9,16.4-11.7  c6.2-2.8,12.9-4.2,20-4.2c8.4,0,16.2,2,23.4,5.9c7.1,3.9,13.1,9.2,17.8,15.8L478,235.7c-2.1-2.3-4.5-4-7.3-5.2  c-2.7-1.2-5.5-1.8-8.4-1.8c-4.4,0-8.3,1.2-11.8,3.6c-3.5,2.4-6.2,5.6-8.2,9.5c-2,3.9-3,8.2-3,12.8c0,4.5,1,8.8,3.1,12.7  c2.1,3.9,4.8,7.1,8.3,9.5c3.5,2.4,7.4,3.6,11.7,3.6c3,0,5.8-0.6,8.4-1.9C473.5,277.3,475.9,275.7,478,273.6"/>
<path class="st0" d="M531.9,191.3c-4.1,0-7.6-1.4-10.4-4.1c-2.8-2.7-4.2-6.1-4.2-10.2c0-4,1.4-7.4,4.2-10.2  c2.8-2.7,6.2-4.1,10.3-4.1c4,0,7.5,1.4,10.2,4.1c2.8,2.7,4.2,6.1,4.2,10.2c0,4.1-1.4,7.5-4.1,10.2C539.4,190,536,191.3,531.9,191.3   M517.5,203.2h28.4v103h-28.4V203.2z"/>
<path class="st0" d="M643.5,151.7h28.4v154.4h-28.4v-10.9c-3.2,4-7.1,7.2-11.7,9.8c-4.7,2.5-10,3.8-16,3.8c-7.5,0-14.5-1.4-21-4.2  c-6.5-2.8-12.3-6.7-17.2-11.7c-5-5-8.9-10.7-11.7-17.2c-2.8-6.5-4.2-13.5-4.2-21c0-7.5,1.4-14.5,4.2-21c2.8-6.5,6.7-12.3,11.7-17.2  c5-5,10.7-8.9,17.2-11.7c6.5-2.8,13.5-4.2,21-4.2c6,0,11.3,1.3,16,3.8c4.7,2.5,8.6,5.8,11.7,9.8V151.7z M616.2,281.5  c4.7,0,8.9-1.2,12.7-3.6c3.8-2.4,6.8-5.6,9-9.7c2.2-4.1,3.3-8.6,3.3-13.5c0-5-1.1-9.5-3.3-13.6c-2.2-4.1-5.2-7.3-9-9.7  c-3.8-2.4-8-3.6-12.7-3.6c-4.7,0-9,1.2-12.9,3.6c-3.8,2.4-6.9,5.6-9.2,9.7c-2.3,4.1-3.4,8.6-3.4,13.5c0,4.9,1.2,9.5,3.4,13.5  c2.3,4.1,5.4,7.3,9.2,9.7C607.3,280.3,611.5,281.5,616.2,281.5"/>
<path class="st0" d="M770.3,203.2h28.4v103h-28.5l-1.3-10.7c-2.7,4-6.1,7.2-10.3,9.7c-4.2,2.5-9.1,3.7-14.7,3.7  c-7.7,0-14.9-1.4-21.5-4.3c-6.7-2.9-12.5-6.9-17.6-11.9c-5.1-5.1-9-11-11.9-17.7c-2.8-6.7-4.3-13.9-4.3-21.6c0-7.3,1.3-14.2,4-20.6  c2.7-6.4,6.4-12,11.3-16.9c4.9-4.9,10.5-8.7,16.8-11.4c6.3-2.7,13.2-4.1,20.5-4.1c6.3,0,12,1.3,17,4c5,2.7,9.5,6.1,13.2,10.2  L770.3,203.2z M743.2,281.5c4.7,0,8.9-1.2,12.7-3.6c3.8-2.4,6.8-5.6,9-9.7c2.2-4.1,3.3-8.6,3.3-13.5c0-5-1.1-9.5-3.3-13.6  c-2.2-4.1-5.2-7.3-9-9.7c-3.8-2.4-8-3.6-12.7-3.6c-4.7,0-9,1.2-12.9,3.6c-3.8,2.4-6.9,5.6-9.2,9.7c-2.3,4.1-3.4,8.6-3.4,13.5  c0,4.9,1.2,9.5,3.4,13.5c2.3,4.1,5.4,7.3,9.2,9.7C734.2,280.3,738.5,281.5,743.2,281.5"/>
<path class="st0" d="M893,151.7h28.4v154.4H893v-10.9c-3.2,4-7.1,7.2-11.7,9.8c-4.7,2.5-10,3.8-16,3.8c-7.5,0-14.5-1.4-21-4.2  c-6.5-2.8-12.3-6.7-17.2-11.7c-5-5-8.9-10.7-11.7-17.2c-2.8-6.5-4.2-13.5-4.2-21c0-7.5,1.4-14.5,4.2-21c2.8-6.5,6.7-12.3,11.7-17.2  c5-5,10.7-8.9,17.2-11.7c6.5-2.8,13.5-4.2,21-4.2c6,0,11.3,1.3,16,3.8c4.7,2.5,8.6,5.8,11.7,9.8V151.7z M865.7,281.5  c4.7,0,8.9-1.2,12.7-3.6c3.8-2.4,6.8-5.6,9-9.7c2.2-4.1,3.3-8.6,3.3-13.5c0-5-1.1-9.5-3.3-13.6c-2.2-4.1-5.2-7.3-9-9.7  c-3.8-2.4-8-3.6-12.7-3.6c-4.7,0-9,1.2-12.9,3.6c-3.8,2.4-6.9,5.6-9.2,9.7c-2.3,4.1-3.4,8.6-3.4,13.5c0,4.9,1.2,9.5,3.4,13.5  c2.3,4.1,5.4,7.3,9.2,9.7C856.8,280.3,861,281.5,865.7,281.5"/>
<path class="st0" d="M1019.8,203.2h28.4v103h-28.5l-1.3-10.7c-2.7,4-6.1,7.2-10.3,9.7c-4.2,2.5-9.1,3.7-14.7,3.7  c-7.7,0-14.9-1.4-21.5-4.3c-6.7-2.9-12.5-6.9-17.6-11.9c-5.1-5.1-9-11-11.9-17.7c-2.8-6.7-4.3-13.9-4.3-21.6c0-7.3,1.3-14.2,4-20.6  c2.7-6.4,6.4-12,11.3-16.9c4.9-4.9,10.5-8.7,16.8-11.4c6.3-2.7,13.2-4.1,20.5-4.1c6.3,0,12,1.3,17,4c5,2.7,9.5,6.1,13.2,10.2  L1019.8,203.2z M1011.7,193.2c-2.6,0-5.7-0.9-9.3-2.8c-3.6-1.9-7.2-3.9-10.7-6.1c-3.5-2.2-6.6-3.9-9.1-5.3c-2.5-1.3-4.1-1.4-4.7-0.4  c-0.6,1.2-0.9,2.4-0.9,3.7c0,1.3,0.4,3,1,5.1l-16.2,4.4c-2-5.8-2.5-11-1.6-15.7c0.9-4.7,3-8.4,6.3-11.2c3.3-2.7,7.7-4.1,13.1-4.1  c2.5,0,5.4,0.7,8.7,2.2c3.3,1.5,6.6,3.2,9.9,5.1c3.3,1.9,6.2,3.6,8.8,5.1c2.5,1.5,4.2,2.2,5,2.2c1.4,0,2.2-0.4,2.5-1.3  c0.3-0.9,0.2-2-0.2-3.3c-0.4-1.3-0.8-2.6-1.3-3.9l16.6-5.4c2,6.1,2.5,11.5,1.4,16.3c-1,4.7-3.2,8.5-6.6,11.2  C1021,191.8,1016.7,193.2,1011.7,193.2 M992.6,281.5c4.7,0,8.9-1.2,12.7-3.6c3.8-2.4,6.8-5.6,9-9.7c2.2-4.1,3.3-8.6,3.3-13.5  c0-5-1.1-9.5-3.3-13.6c-2.2-4.1-5.2-7.3-9-9.7c-3.8-2.4-8-3.6-12.7-3.6c-4.7,0-9,1.2-12.9,3.6c-3.8,2.4-6.9,5.6-9.2,9.7  c-2.3,4.1-3.4,8.6-3.4,13.5c0,4.9,1.2,9.5,3.4,13.5c2.3,4.1,5.4,7.3,9.2,9.7C983.7,280.3,988,281.5,992.6,281.5"/>
<path class="st0" d="M1112,308.8c-9.5,0-18.1-2.4-25.9-7.3c-7.8-4.9-14-11.4-18.6-19.6c-4.6-8.2-7-17.3-7-27.2  c0-7.5,1.3-14.6,4-21.2c2.7-6.6,6.4-12.3,11.1-17.3c4.7-5,10.2-8.9,16.4-11.7c6.2-2.8,12.9-4.2,20-4.2c9.5,0,18.1,2.4,25.9,7.3  c7.8,4.9,14,11.4,18.6,19.7c4.6,8.2,6.9,17.4,6.9,27.4c0,7.5-1.3,14.5-4,21c-2.7,6.5-6.4,12.3-11.1,17.2c-4.7,5-10.2,8.9-16.4,11.7  C1125.9,307.4,1119.2,308.8,1112,308.8 M1112,280.4c4.4,0,8.3-1.2,11.8-3.6c3.5-2.4,6.2-5.5,8.2-9.4c2-3.9,3-8.2,3-12.8  c0-4.7-1-9.1-3.1-13c-2.1-3.9-4.9-7.1-8.4-9.4c-3.5-2.3-7.3-3.5-11.5-3.5c-4.3,0-8.2,1.2-11.7,3.6c-3.5,2.4-6.3,5.6-8.3,9.5  c-2,3.9-3,8.2-3,12.9c0,4.9,1,9.3,3.1,13.1c2.1,3.9,4.9,7,8.4,9.2C1104,279.3,1107.9,280.4,1112,280.4"/>
<path class="st0" d="M125.8,123.4c32.4-32.4,84.9-32.4,117.2,0c32.4,32.4,32.4,84.9,0,117.2c-32.4,32.4-84.9,32.4-117.2,0  C93.4,208.2,93.4,155.8,125.8,123.4"/>
<path class="st0" d="M180.5,345.9l-1.4,0c-26.5-0.8-52.6-8.1-75.3-20.9c-17.7,11.5-41.3,9-56.3-6c-15-15-17.5-38.6-6-56.3  c-13.1-23.2-20.3-49.8-20.9-76.8l0-1.4h14.9l0,1.3c0.8,30.4,10.5,59.3,28.2,83.7c4.6,6.3,9.7,12.4,15.3,18  c5.6,5.6,11.7,10.8,18,15.4c24,17.4,52.4,27.1,82.2,28.1l1.3,0V345.9z"/>
<path class="st0" d="M69.1,177.4H56.9L57,176c0.9-19.9,6.5-39.4,16.1-56.5c-8.9-13.9-6.9-32.2,4.8-43.9  c11.7-11.7,30.1-13.7,43.9-4.8c17.5-9.8,37.4-15.4,57.8-16.2l1.4-0.1v12.2l-1.3,0.1c-22.8,0.9-44.5,8.4-62.9,21.7  c-5,3.6-9.7,7.6-14.1,12c-4.4,4.4-8.4,9.1-12,14.1c-13,18-20.5,39.3-21.6,61.7L69.1,177.4z"/>
<path class="st0" d="M187.8,309.5v-12.2l1.3-0.1c22.8-0.9,44.6-8.5,62.9-21.7c4.9-3.5,9.6-7.5,14-11.9c4.4-4.4,8.3-9,11.9-13.9  c13.6-18.7,21.1-40.9,21.8-64.2l0-1.3h12.2l0,1.4c-0.6,20.8-6.2,41.2-16.2,59c8.9,13.9,6.9,32.2-4.8,43.9  c-11.7,11.7-30.1,13.7-43.9,4.8c-17.4,9.8-37.4,15.4-57.7,16.1L187.8,309.5z"/>
<path class="st0" d="M348.2,176.4h-14.9l-0.1-1.3c-1.3-29.2-11-57-28-80.4c-4.6-6.4-9.8-12.5-15.4-18.2  c-5.7-5.7-11.8-10.9-18.2-15.4c-23.9-17.3-52.3-27-82-28.1l-1.3,0V18.1l1.4,0c26.5,0.9,52.5,8.1,75.2,20.9c17.7-11.5,41.3-9,56.3,6  c15,15,17.5,38.6,6,56.3c12.5,22.3,19.8,47.7,20.8,73.6L348.2,176.4z"/>
<script xmlns=""/></svg>