<svg width="501" height="125" viewBox="0 0 501 125" fill="none" xmlns="http://www.w3.org/2000/svg">
<path d="M0 23.1827C0 10.3793 10.3793 0 23.1827 0H103.034C115.838 0 126.217 10.3793 126.217 23.1827V101.746C126.217 114.55 115.838 124.929 103.034 124.929H23.1827C10.3792 124.929 0 114.55 0 101.746V23.1827Z" fill="#FBE0FA"/>
<path d="M82.9188 74.4274H98.6752L99.5867 75.2088L98.9356 83.1521H82.9188V99.1689L74.9755 99.82L74.0639 99.0387V83.1521H58.1773L57.396 82.2405L57.9169 74.4274H74.0639V58.1502L81.877 57.4991L82.9188 58.4106V74.4274Z" fill="#80217C"/>
<path d="M45.2398 56.4639L53.5851 56.5885L63.7988 56.3394L64.6707 57.2113L63.7988 66.553L52.5887 66.3039L45.1153 66.4285L44.9907 71.1616L45.489 90.2188H32.7842L33.5315 72.2826L32.7842 30.1825H68.5319L69.2792 31.179L68.4073 40.6453L54.0834 40.147H45.489L45.2398 56.4639Z" fill="#80217C"/>
<path d="M153.45 106.785C154.026 106.785 154.566 106.677 155.07 106.461C155.574 106.245 156.015 105.912 156.393 105.462C156.771 104.994 157.068 104.391 157.284 103.653C157.518 102.915 157.635 102.024 157.635 100.98C157.635 99.936 157.518 99.045 157.284 98.307C157.068 97.569 156.771 96.975 156.393 96.525C156.015 96.057 155.574 95.715 155.07 95.499C154.566 95.283 154.026 95.175 153.45 95.175C152.874 95.175 152.334 95.283 151.83 95.499C151.326 95.715 150.885 96.057 150.507 96.525C150.129 96.975 149.823 97.569 149.589 98.307C149.373 99.045 149.265 99.936 149.265 100.98C149.265 102.024 149.373 102.915 149.589 103.653C149.823 104.391 150.129 104.994 150.507 105.462C150.885 105.912 151.326 106.245 151.83 106.461C152.334 106.677 152.874 106.785 153.45 106.785ZM153.45 93.42C154.656 93.42 155.763 93.591 156.771 93.933C157.797 94.257 158.67 94.743 159.39 95.391C160.11 96.021 160.668 96.813 161.064 97.767C161.478 98.703 161.685 99.774 161.685 100.98C161.685 102.204 161.478 103.284 161.064 104.22C160.668 105.156 160.11 105.948 159.39 106.596C158.67 107.226 157.797 107.703 156.771 108.027C155.763 108.369 154.656 108.54 153.45 108.54C152.226 108.54 151.11 108.369 150.102 108.027C149.094 107.703 148.23 107.226 147.51 106.596C146.79 105.948 146.223 105.156 145.809 104.22C145.413 103.284 145.215 102.204 145.215 100.98C145.215 99.774 145.413 98.703 145.809 97.767C146.223 96.813 146.79 96.021 147.51 95.391C148.23 94.743 149.094 94.257 150.102 93.933C151.11 93.591 152.226 93.42 153.45 93.42Z" fill="#80217C"/>
<path d="M165.483 95.85H162.918V93.96H165.483V89.64H169.263V93.96H173.448V95.85H169.263V102.87C169.263 103.554 169.335 104.139 169.479 104.625C169.641 105.093 169.848 105.48 170.1 105.786C170.37 106.074 170.676 106.29 171.018 106.434C171.36 106.578 171.72 106.65 172.098 106.65C172.638 106.65 173.16 106.569 173.664 106.407C174.168 106.227 174.591 106.038 174.933 105.84L175.743 107.595C175.203 107.865 174.582 108.09 173.88 108.27C173.196 108.45 172.512 108.54 171.828 108.54C169.794 108.54 168.228 108.036 167.13 107.028C166.032 106.02 165.483 104.634 165.483 102.87V95.85Z" fill="#80217C"/>
<path d="M181.815 108H178.035V94.23H181.815V108ZM181.95 90.585C181.95 91.125 181.761 91.602 181.383 92.016C181.023 92.412 180.537 92.61 179.925 92.61C179.313 92.61 178.818 92.412 178.44 92.016C178.08 91.602 177.9 91.125 177.9 90.585C177.9 90.045 178.08 89.577 178.44 89.181C178.818 88.767 179.313 88.56 179.925 88.56C180.519 88.56 181.005 88.767 181.383 89.181C181.761 89.577 181.95 90.045 181.95 90.585Z" fill="#80217C"/>
<path d="M185.731 93.96H199.771C202.345 93.96 204.244 94.428 205.468 95.364C206.71 96.282 207.331 97.659 207.331 99.495V108H203.551V99.495C203.551 98.199 203.227 97.272 202.579 96.714C201.931 96.138 200.995 95.85 199.771 95.85H198.421V108H194.641V95.85H189.511V108H185.731V93.96Z" fill="#80217C"/>
<path d="M214.879 108H211.099V94.23H214.879V108ZM215.014 90.585C215.014 91.125 214.825 91.602 214.447 92.016C214.087 92.412 213.601 92.61 212.989 92.61C212.377 92.61 211.882 92.412 211.504 92.016C211.144 91.602 210.964 91.125 210.964 90.585C210.964 90.045 211.144 89.577 211.504 89.181C211.882 88.767 212.377 88.56 212.989 88.56C213.583 88.56 214.069 88.767 214.447 89.181C214.825 89.577 215.014 90.045 215.014 90.585Z" fill="#80217C"/>
<path d="M231.89 106.11V108H217.85V105.84L227.165 95.85H218.12V93.96H231.62V96.12L222.305 106.11H231.89Z" fill="#80217C"/>
<path d="M237.299 103.545C237.299 105.255 238.334 106.11 240.404 106.11H244.184V100.98H240.404C238.334 100.98 237.299 101.835 237.299 103.545ZM244.184 99.09C244.184 97.794 243.842 96.84 243.158 96.228C242.492 95.616 241.619 95.31 240.539 95.31C239.729 95.31 238.937 95.436 238.163 95.688C237.389 95.922 236.696 96.246 236.084 96.66L235.139 95.04C235.535 94.77 235.967 94.536 236.435 94.338C236.921 94.14 237.416 93.978 237.92 93.852C238.424 93.708 238.919 93.6 239.405 93.528C239.909 93.456 240.377 93.42 240.809 93.42C241.961 93.42 242.978 93.555 243.86 93.825C244.742 94.095 245.489 94.482 246.101 94.986C246.713 95.49 247.172 96.093 247.478 96.795C247.802 97.479 247.964 98.244 247.964 99.09V108H240.404C237.956 108 236.147 107.631 234.977 106.893C233.825 106.155 233.249 105.039 233.249 103.545C233.249 102.051 233.825 100.935 234.977 100.197C236.147 99.459 237.956 99.09 240.404 99.09H244.184Z" fill="#80217C"/>
<path d="M266.446 108H262.666V99.495C262.666 98.199 262.342 97.272 261.694 96.714C261.046 96.138 260.11 95.85 258.886 95.85H255.376V108H251.596V93.96H258.886C261.46 93.96 263.359 94.428 264.583 95.364C265.825 96.282 266.446 97.659 266.446 99.495V108Z" fill="#80217C"/>
<path d="M281.014 106.11V95.85H277.639C277.027 95.85 276.46 95.949 275.938 96.147C275.434 96.327 274.993 96.624 274.615 97.038C274.255 97.452 273.967 97.983 273.751 98.631C273.553 99.279 273.454 100.062 273.454 100.98C273.454 101.898 273.553 102.681 273.751 103.329C273.967 103.977 274.255 104.508 274.615 104.922C274.993 105.336 275.434 105.642 275.938 105.84C276.46 106.02 277.027 106.11 277.639 106.11H281.014ZM277.639 108C276.397 108 275.263 107.838 274.237 107.514C273.229 107.19 272.365 106.722 271.645 106.11C270.925 105.498 270.367 104.76 269.971 103.896C269.593 103.032 269.404 102.06 269.404 100.98C269.404 99.9 269.593 98.928 269.971 98.064C270.367 97.2 270.925 96.462 271.645 95.85C272.365 95.238 273.229 94.77 274.237 94.446C275.263 94.122 276.397 93.96 277.639 93.96H281.014V89.1H284.794V108H277.639Z" fill="#80217C"/>
<path d="M296.123 106.785C296.699 106.785 297.239 106.677 297.743 106.461C298.247 106.245 298.688 105.912 299.066 105.462C299.444 104.994 299.741 104.391 299.957 103.653C300.191 102.915 300.308 102.024 300.308 100.98C300.308 99.936 300.191 99.045 299.957 98.307C299.741 97.569 299.444 96.975 299.066 96.525C298.688 96.057 298.247 95.715 297.743 95.499C297.239 95.283 296.699 95.175 296.123 95.175C295.547 95.175 295.007 95.283 294.503 95.499C293.999 95.715 293.558 96.057 293.18 96.525C292.802 96.975 292.496 97.569 292.262 98.307C292.046 99.045 291.938 99.936 291.938 100.98C291.938 102.024 292.046 102.915 292.262 103.653C292.496 104.391 292.802 104.994 293.18 105.462C293.558 105.912 293.999 106.245 294.503 106.461C295.007 106.677 295.547 106.785 296.123 106.785ZM296.123 93.42C297.329 93.42 298.436 93.591 299.444 93.933C300.47 94.257 301.343 94.743 302.063 95.391C302.783 96.021 303.341 96.813 303.737 97.767C304.151 98.703 304.358 99.774 304.358 100.98C304.358 102.204 304.151 103.284 303.737 104.22C303.341 105.156 302.783 105.948 302.063 106.596C301.343 107.226 300.47 107.703 299.444 108.027C298.436 108.369 297.329 108.54 296.123 108.54C294.899 108.54 293.783 108.369 292.775 108.027C291.767 107.703 290.903 107.226 290.183 106.596C289.463 105.948 288.896 105.156 288.482 104.22C288.086 103.284 287.888 102.204 287.888 100.98C287.888 99.774 288.086 98.703 288.482 97.767C288.896 96.813 289.463 96.021 290.183 95.391C290.903 94.743 291.767 94.257 292.775 93.933C293.783 93.591 294.899 93.42 296.123 93.42Z" fill="#80217C"/>
<path d="M324.468 106.785C325.044 106.785 325.584 106.677 326.088 106.461C326.592 106.245 327.033 105.912 327.411 105.462C327.789 104.994 328.086 104.391 328.302 103.653C328.536 102.915 328.653 102.024 328.653 100.98C328.653 99.936 328.536 99.045 328.302 98.307C328.086 97.569 327.789 96.975 327.411 96.525C327.033 96.057 326.592 95.715 326.088 95.499C325.584 95.283 325.044 95.175 324.468 95.175C323.892 95.175 323.352 95.283 322.848 95.499C322.344 95.715 321.903 96.057 321.525 96.525C321.147 96.975 320.841 97.569 320.607 98.307C320.391 99.045 320.283 99.936 320.283 100.98C320.283 102.024 320.391 102.915 320.607 103.653C320.841 104.391 321.147 104.994 321.525 105.462C321.903 105.912 322.344 106.245 322.848 106.461C323.352 106.677 323.892 106.785 324.468 106.785ZM324.468 93.42C325.674 93.42 326.781 93.591 327.789 93.933C328.815 94.257 329.688 94.743 330.408 95.391C331.128 96.021 331.686 96.813 332.082 97.767C332.496 98.703 332.703 99.774 332.703 100.98C332.703 102.204 332.496 103.284 332.082 104.22C331.686 105.156 331.128 105.948 330.408 106.596C329.688 107.226 328.815 107.703 327.789 108.027C326.781 108.369 325.674 108.54 324.468 108.54C323.244 108.54 322.128 108.369 321.12 108.027C320.112 107.703 319.248 107.226 318.528 106.596C317.808 105.948 317.241 105.156 316.827 104.22C316.431 103.284 316.233 102.204 316.233 100.98C316.233 99.774 316.431 98.703 316.827 97.767C317.241 96.813 317.808 96.021 318.528 95.391C319.248 94.743 320.112 94.257 321.12 93.933C322.128 93.591 323.244 93.42 324.468 93.42Z" fill="#80217C"/>
<path d="M348.492 96.93C348.492 97.344 348.672 97.722 349.032 98.064C349.41 98.406 350.04 98.703 350.922 98.955L355.107 100.17C356.403 100.548 357.402 101.061 358.104 101.709C358.806 102.357 359.157 103.194 359.157 104.22C359.157 104.868 359.022 105.462 358.752 106.002C358.482 106.524 358.041 106.974 357.429 107.352C356.817 107.73 356.025 108.018 355.053 108.216C354.081 108.432 352.884 108.54 351.462 108.54C350.724 108.54 349.995 108.486 349.275 108.378C348.573 108.27 347.898 108.126 347.25 107.946C346.62 107.748 346.044 107.532 345.522 107.298C345 107.046 344.55 106.785 344.172 106.515L345.252 104.895C346.008 105.363 346.89 105.777 347.898 106.137C348.924 106.479 350.112 106.65 351.462 106.65C352.812 106.65 353.757 106.47 354.297 106.11C354.837 105.75 355.107 105.3 355.107 104.76C355.107 104.346 354.918 103.977 354.54 103.653C354.162 103.311 353.496 103.005 352.542 102.735L348.357 101.52C347.205 101.178 346.26 100.692 345.522 100.062C344.802 99.414 344.442 98.55 344.442 97.47C344.442 96.894 344.568 96.363 344.82 95.877C345.09 95.373 345.504 94.941 346.062 94.581C346.62 94.221 347.331 93.942 348.195 93.744C349.059 93.528 350.103 93.42 351.327 93.42C352.821 93.42 354.171 93.627 355.377 94.041C356.601 94.437 357.591 94.905 358.347 95.445L357.267 97.065C356.529 96.597 355.692 96.192 354.756 95.85C353.82 95.49 352.677 95.31 351.327 95.31C350.373 95.31 349.662 95.463 349.194 95.769C348.726 96.075 348.492 96.462 348.492 96.93Z" fill="#80217C"/>
<path d="M369.964 106.65C370.846 106.65 371.665 106.497 372.421 106.191C373.195 105.885 373.951 105.453 374.689 104.895L375.769 106.515C375.427 106.821 375.022 107.1 374.554 107.352C374.104 107.604 373.609 107.82 373.069 108C372.547 108.162 371.998 108.288 371.422 108.378C370.846 108.486 370.27 108.54 369.694 108.54C368.416 108.54 367.246 108.369 366.184 108.027C365.14 107.703 364.249 107.226 363.511 106.596C362.773 105.948 362.197 105.156 361.783 104.22C361.387 103.284 361.189 102.204 361.189 100.98C361.189 99.774 361.378 98.703 361.756 97.767C362.152 96.813 362.692 96.021 363.376 95.391C364.078 94.743 364.906 94.257 365.86 93.933C366.814 93.591 367.867 93.42 369.019 93.42C370.099 93.42 371.116 93.582 372.07 93.906C373.024 94.23 373.852 94.707 374.554 95.337C375.256 95.949 375.814 96.696 376.228 97.578C376.642 98.46 376.849 99.459 376.849 100.575V102.465H365.32C365.536 103.959 366.049 105.03 366.859 105.678C367.687 106.326 368.722 106.65 369.964 106.65ZM369.019 95.175C368.497 95.175 368.011 95.274 367.561 95.472C367.111 95.67 366.715 95.985 366.373 96.417C366.049 96.849 365.779 97.407 365.563 98.091C365.365 98.775 365.257 99.603 365.239 100.575H372.799C372.799 99.639 372.691 98.829 372.475 98.145C372.259 97.461 371.971 96.903 371.611 96.471C371.269 96.021 370.864 95.697 370.396 95.499C369.946 95.283 369.487 95.175 369.019 95.175Z" fill="#80217C"/>
<path d="M379.952 93.96H383.732V102.465C383.732 103.761 384.056 104.697 384.704 105.273C385.352 105.831 386.288 106.11 387.512 106.11H391.022V93.96H394.802V108H387.512C384.938 108 383.03 107.541 381.788 106.623C380.564 105.687 379.952 104.301 379.952 102.465V93.96Z" fill="#80217C"/>
<path d="M409.248 95.85H406.683V93.96H409.248V89.64H413.028V93.96H417.213V95.85H413.028V102.87C413.028 103.554 413.1 104.139 413.244 104.625C413.406 105.093 413.613 105.48 413.865 105.786C414.135 106.074 414.441 106.29 414.783 106.434C415.125 106.578 415.485 106.65 415.863 106.65C416.403 106.65 416.925 106.569 417.429 106.407C417.933 106.227 418.356 106.038 418.698 105.84L419.508 107.595C418.968 107.865 418.347 108.09 417.645 108.27C416.961 108.45 416.277 108.54 415.593 108.54C413.559 108.54 411.993 108.036 410.895 107.028C409.797 106.02 409.248 104.634 409.248 102.87V95.85Z" fill="#80217C"/>
<path d="M428.947 106.65C429.829 106.65 430.648 106.497 431.404 106.191C432.178 105.885 432.934 105.453 433.672 104.895L434.752 106.515C434.41 106.821 434.005 107.1 433.537 107.352C433.087 107.604 432.592 107.82 432.052 108C431.53 108.162 430.981 108.288 430.405 108.378C429.829 108.486 429.253 108.54 428.677 108.54C427.399 108.54 426.229 108.369 425.167 108.027C424.123 107.703 423.232 107.226 422.494 106.596C421.756 105.948 421.18 105.156 420.766 104.22C420.37 103.284 420.172 102.204 420.172 100.98C420.172 99.774 420.361 98.703 420.739 97.767C421.135 96.813 421.675 96.021 422.359 95.391C423.061 94.743 423.889 94.257 424.843 93.933C425.797 93.591 426.85 93.42 428.002 93.42C429.082 93.42 430.099 93.582 431.053 93.906C432.007 94.23 432.835 94.707 433.537 95.337C434.239 95.949 434.797 96.696 435.211 97.578C435.625 98.46 435.832 99.459 435.832 100.575V102.465H424.303C424.519 103.959 425.032 105.03 425.842 105.678C426.67 106.326 427.705 106.65 428.947 106.65ZM428.002 95.175C427.48 95.175 426.994 95.274 426.544 95.472C426.094 95.67 425.698 95.985 425.356 96.417C425.032 96.849 424.762 97.407 424.546 98.091C424.348 98.775 424.24 99.603 424.222 100.575H431.782C431.782 99.639 431.674 98.829 431.458 98.145C431.242 97.461 430.954 96.903 430.594 96.471C430.252 96.021 429.847 95.697 429.379 95.499C428.929 95.283 428.47 95.175 428.002 95.175Z" fill="#80217C"/>
<path d="M438.935 93.96H452.975C455.549 93.96 457.448 94.428 458.672 95.364C459.914 96.282 460.535 97.659 460.535 99.495V108H456.755V99.495C456.755 98.199 456.431 97.272 455.783 96.714C455.135 96.138 454.199 95.85 452.975 95.85H451.625V108H447.845V95.85H442.715V108H438.935V93.96Z" fill="#80217C"/>
<path d="M467.948 95.85V106.11H471.323C471.935 106.11 472.493 106.02 472.997 105.84C473.519 105.642 473.96 105.336 474.32 104.922C474.698 104.508 474.986 103.977 475.184 103.329C475.4 102.681 475.508 101.898 475.508 100.98C475.508 100.062 475.4 99.279 475.184 98.631C474.986 97.983 474.698 97.452 474.32 97.038C473.96 96.624 473.519 96.327 472.997 96.147C472.493 95.949 471.935 95.85 471.323 95.85H467.948ZM471.323 93.96C472.565 93.96 473.69 94.122 474.698 94.446C475.724 94.77 476.597 95.238 477.317 95.85C478.037 96.462 478.586 97.2 478.964 98.064C479.36 98.928 479.558 99.9 479.558 100.98C479.558 102.06 479.36 103.032 478.964 103.896C478.586 104.76 478.037 105.498 477.317 106.11C476.597 106.722 475.724 107.19 474.698 107.514C473.69 107.838 472.565 108 471.323 108H467.948V112.86H464.168V93.96H471.323Z" fill="#80217C"/>
<path d="M490.212 106.785C490.788 106.785 491.328 106.677 491.832 106.461C492.336 106.245 492.777 105.912 493.155 105.462C493.533 104.994 493.83 104.391 494.046 103.653C494.28 102.915 494.397 102.024 494.397 100.98C494.397 99.936 494.28 99.045 494.046 98.307C493.83 97.569 493.533 96.975 493.155 96.525C492.777 96.057 492.336 95.715 491.832 95.499C491.328 95.283 490.788 95.175 490.212 95.175C489.636 95.175 489.096 95.283 488.592 95.499C488.088 95.715 487.647 96.057 487.269 96.525C486.891 96.975 486.585 97.569 486.351 98.307C486.135 99.045 486.027 99.936 486.027 100.98C486.027 102.024 486.135 102.915 486.351 103.653C486.585 104.391 486.891 104.994 487.269 105.462C487.647 105.912 488.088 106.245 488.592 106.461C489.096 106.677 489.636 106.785 490.212 106.785ZM490.212 93.42C491.418 93.42 492.525 93.591 493.533 93.933C494.559 94.257 495.432 94.743 496.152 95.391C496.872 96.021 497.43 96.813 497.826 97.767C498.24 98.703 498.447 99.774 498.447 100.98C498.447 102.204 498.24 103.284 497.826 104.22C497.43 105.156 496.872 105.948 496.152 106.596C495.432 107.226 494.559 107.703 493.533 108.027C492.525 108.369 491.418 108.54 490.212 108.54C488.988 108.54 487.872 108.369 486.864 108.027C485.856 107.703 484.992 107.226 484.272 106.596C483.552 105.948 482.985 105.156 482.571 104.22C482.175 103.284 481.977 102.204 481.977 100.98C481.977 99.774 482.175 98.703 482.571 97.767C482.985 96.813 483.552 96.021 484.272 95.391C484.992 94.743 485.856 94.257 486.864 93.933C487.872 93.591 488.988 93.42 490.212 93.42Z" fill="#80217C"/>
<path d="M156.722 27.4829V47.2654H186.808V53.4475H156.722V79H144.77V21.3008H196.699V27.4829H156.722Z" fill="#80217C"/>
<path d="M205.364 65.3995C205.364 70.6199 208.523 73.2301 214.843 73.2301H226.383V57.5689H214.843C208.523 57.5689 205.364 60.1791 205.364 65.3995ZM226.383 51.799C226.383 47.8424 225.339 44.93 223.25 43.0617C221.217 41.1933 218.552 40.2591 215.255 40.2591C212.782 40.2591 210.364 40.6438 208.001 41.4131C205.638 42.1275 203.523 43.1166 201.654 44.3805L198.77 39.4348C199.978 38.6106 201.297 37.8962 202.726 37.2917C204.21 36.6873 205.721 36.1927 207.26 35.808C208.798 35.3684 210.309 35.0387 211.793 34.8189C213.332 34.5991 214.76 34.4892 216.079 34.4892C219.596 34.4892 222.701 34.9013 225.394 35.7256C228.086 36.5499 230.367 37.7313 232.235 39.27C234.103 40.8086 235.505 42.6495 236.439 44.7926C237.428 46.8808 237.923 49.2162 237.923 51.799V79H214.843C207.369 79 201.847 77.8735 198.275 75.6205C194.758 73.3675 193 69.9605 193 65.3995C193 60.8385 194.758 57.4315 198.275 55.1785C201.847 52.9255 207.369 51.799 214.843 51.799H226.383Z" fill="#80217C"/>
<path d="M272.091 34.4892C273.85 34.4892 275.608 34.6541 277.367 34.9838C279.125 35.2585 280.801 35.6707 282.395 36.2202C284.043 36.7147 285.554 37.3467 286.928 38.116C288.357 38.8853 289.593 39.7371 290.637 40.6713L287.34 45.6169C285.087 43.9134 282.779 42.5946 280.416 41.6604C278.108 40.7262 275.608 40.2591 272.916 40.2591C270.937 40.2591 269.124 40.5888 267.475 41.2482C265.827 41.8527 264.398 42.8693 263.189 44.2981C261.98 45.6719 261.019 47.4578 260.304 49.6558C259.645 51.8539 259.315 54.4916 259.315 57.5689C259.315 60.6462 259.645 63.2838 260.304 65.4819C261.019 67.68 262.008 69.4934 263.272 70.9221C264.535 72.2959 266.047 73.3125 267.805 73.9719C269.618 74.5764 271.597 74.8786 273.74 74.8786C276.432 74.8786 278.933 74.4115 281.241 73.4774C283.604 72.5432 285.912 71.2243 288.165 69.5209L291.462 74.4665C290.418 75.4007 289.181 76.2524 287.752 77.0217C286.379 77.7911 284.868 78.4505 283.219 79C281.625 79.4946 279.949 79.8792 278.191 80.154C276.432 80.4837 274.674 80.6485 272.916 80.6485C269.014 80.6485 265.442 80.1265 262.2 79.0824C259.013 78.0933 256.293 76.6371 254.04 74.7138C251.787 72.7355 250.028 70.3176 248.764 67.4602C247.555 64.6027 246.951 61.3056 246.951 57.5689C246.951 53.8871 247.555 50.6175 248.764 47.76C250.028 44.8476 251.759 42.4297 253.957 40.5064C256.155 38.5281 258.793 37.0445 261.87 36.0553C264.948 35.0112 268.355 34.4892 272.091 34.4892Z" fill="#80217C"/>
<path d="M311.676 79H300.136V36.962H311.676V79ZM312.088 25.8343C312.088 27.4829 311.511 28.9391 310.357 30.203C309.258 31.4119 307.774 32.0164 305.906 32.0164C304.037 32.0164 302.526 31.4119 301.372 30.203C300.273 28.9391 299.724 27.4829 299.724 25.8343C299.724 24.1858 300.273 22.757 301.372 21.5481C302.526 20.2842 304.037 19.6523 305.906 19.6523C307.719 19.6523 309.203 20.2842 310.357 21.5481C311.511 22.757 312.088 24.1858 312.088 25.8343Z" fill="#80217C"/>
<path d="M335.171 79H323.631V21.3008H335.171V79Z" fill="#80217C"/>
<path d="M358.685 79H347.145V36.962H358.685V79ZM359.097 25.8343C359.097 27.4829 358.52 28.9391 357.366 30.203C356.267 31.4119 354.784 32.0164 352.915 32.0164C351.047 32.0164 349.536 31.4119 348.382 30.203C347.283 28.9391 346.733 27.4829 346.733 25.8343C346.733 24.1858 347.283 22.757 348.382 21.5481C349.536 20.2842 351.047 19.6523 352.915 19.6523C354.729 19.6523 356.212 20.2842 357.366 21.5481C358.52 22.757 359.097 24.1858 359.097 25.8343Z" fill="#80217C"/>
<path d="M374.35 41.9077H366.519V36.1377H374.35V22.9494H385.889V36.1377H398.666V41.9077H385.889V63.3388C385.889 65.427 386.109 67.2129 386.549 68.6966C387.043 70.1253 387.675 71.3068 388.445 72.241C389.269 73.1202 390.203 73.7796 391.247 74.2192C392.291 74.6588 393.39 74.8786 394.544 74.8786C396.193 74.8786 397.786 74.6313 399.325 74.1368C400.864 73.5873 402.155 73.0103 403.199 72.4058L405.672 77.7636C404.023 78.5879 402.128 79.2748 399.984 79.8243C397.896 80.3738 395.808 80.6485 393.72 80.6485C387.51 80.6485 382.73 79.1099 379.378 76.0326C376.026 72.9553 374.35 68.7241 374.35 63.3388V41.9077Z" fill="#80217C"/>
<path d="M420.126 65.3995C420.126 70.6199 423.285 73.2301 429.605 73.2301H441.145V57.5689H429.605C423.285 57.5689 420.126 60.1791 420.126 65.3995ZM441.145 51.799C441.145 47.8424 440.101 44.93 438.012 43.0617C435.979 41.1933 433.314 40.2591 430.017 40.2591C427.544 40.2591 425.126 40.6438 422.763 41.4131C420.4 42.1275 418.285 43.1166 416.416 44.3805L413.532 39.4348C414.74 38.6106 416.059 37.8962 417.488 37.2917C418.972 36.6873 420.483 36.1927 422.022 35.808C423.56 35.3684 425.071 35.0387 426.555 34.8189C428.094 34.5991 429.522 34.4892 430.841 34.4892C434.358 34.4892 437.463 34.9013 440.156 35.7256C442.848 36.5499 445.129 37.7313 446.997 39.27C448.865 40.8086 450.267 42.6495 451.201 44.7926C452.19 46.8808 452.685 49.2162 452.685 51.799V79H429.605C422.131 79 416.609 77.8735 413.037 75.6205C409.52 73.3675 407.762 69.9605 407.762 65.3995C407.762 60.8385 409.52 57.4315 413.037 55.1785C416.609 52.9255 422.131 51.799 429.605 51.799H441.145Z" fill="#80217C"/>
<path d="M500.042 55.9203H484.38V71.5815H476.138V55.9203H460.477V48.5019H476.138V32.8407H484.38V48.5019H500.042V55.9203Z" fill="#80217C"/>
</svg>
