<svg width="136" height="40" viewBox="0 0 136 40" fill="none" xmlns="http://www.w3.org/2000/svg">
<path d="M36.6114 27.7003C22.692 27.7003 16.3518 21.0436 16.3518 14.86C16.3518 8.67633 22.692 2.01956 36.6114 2.01956C38.0313 2.01956 39.1837 3.16657 39.1837 4.57986C39.1837 5.99314 38.0313 7.14015 36.6114 7.14015C26.6884 7.14015 21.4964 11.0236 21.4964 14.86C21.4964 18.6963 26.6884 22.5798 36.6114 22.5798C38.0313 22.5798 39.1837 23.7268 39.1837 25.14C39.1837 26.5533 38.0313 27.7003 36.6114 27.7003Z" fill="#489E46"/>
<path d="M12.2525 14.8599C12.2525 17.1232 10.4107 18.9564 8.13678 18.9564C5.86284 18.9564 4.02106 17.1232 4.02106 14.8599C4.02106 12.5966 5.86284 10.7635 8.13678 10.7635C10.4107 10.7635 12.2525 12.5966 12.2525 14.8599Z" fill="#489E46"/>
<g style="mix-blend-mode:multiply">
<g style="mix-blend-mode:multiply">
<path d="M29.7093 37.9804C28.2894 37.9804 27.137 36.8334 27.137 35.4201C27.137 34.0069 28.2894 32.8598 29.7093 32.8598C39.6323 32.8598 44.8243 28.9764 44.8243 25.14C44.8243 21.3037 39.6323 17.4202 29.7093 17.4202C28.2894 17.4202 27.137 16.2732 27.137 14.8599C27.137 13.4467 28.2894 12.2997 29.7093 12.2997C43.6287 12.2997 49.969 18.9564 49.969 25.14C49.969 31.3237 43.6287 37.9804 29.7093 37.9804Z" fill="#276647"/>
</g>
</g>
<path d="M62.1392 25.1401C62.1392 22.8768 60.2974 21.0436 58.0234 21.0436C55.7495 21.0436 53.9077 22.8768 53.9077 25.1401C53.9077 27.4034 55.7495 29.2365 58.0234 29.2365C60.2974 29.2365 62.1392 27.4034 62.1392 25.1401Z" fill="#276647"/>
<path d="M71.9859 14.9275V1.39279H73.6177V14.9275H71.9859Z" fill="#489E46"/>
<path d="M84.825 8.91597V14.9296H83.1931V9.27441C83.1931 8.78488 83.0738 8.34042 82.833 7.94101C82.5943 7.5416 82.2733 7.22413 81.872 6.98858C81.4707 6.75303 81.0241 6.63628 80.5323 6.63628C80.0405 6.63628 79.6022 6.75303 79.1968 6.98858C78.7914 7.22413 78.4703 7.5416 78.2296 7.94101C77.9888 8.34042 77.8694 8.78488 77.8694 9.27441V14.9296H76.2376V5.25987H77.8694V6.46833C78.2131 6.01772 78.6473 5.65723 79.17 5.39096C79.6927 5.12469 80.2648 4.9895 80.8801 4.9895C81.6045 4.9895 82.2671 5.16565 82.8659 5.5159C83.4648 5.8682 83.9401 6.33929 84.2941 6.93328C84.646 7.52727 84.823 8.1868 84.823 8.91597H84.825Z" fill="#489E46"/>
<path d="M91.7991 6.8841H89.5951L89.5848 14.9275H87.953L87.9633 6.8841H86.2923V5.25985H87.9633L87.953 2.22437H89.5848L89.5951 5.25985H91.7991V6.8841Z" fill="#489E46"/>
<path d="M97.5611 15.1795C96.668 15.1795 95.8531 14.9501 95.1184 14.4933C94.3838 14.0366 93.7973 13.4221 93.361 12.652C92.9248 11.8818 92.7046 11.0297 92.7046 10.0958C92.7046 9.38706 92.8301 8.72344 93.0832 8.10897C93.3363 7.49449 93.6841 6.95171 94.1265 6.48471C94.569 6.01772 95.0855 5.65108 95.6761 5.38686C96.2647 5.12264 96.8944 4.9895 97.5611 4.9895C98.2937 4.9895 98.9646 5.13697 99.5758 5.42987C100.187 5.72277 100.712 6.13037 101.15 6.65267C101.588 7.17497 101.913 7.78125 102.132 8.46945C102.348 9.15971 102.428 9.89708 102.37 10.6836H94.4435C94.5217 11.2305 94.7027 11.72 94.9867 12.1481C95.2728 12.5762 95.635 12.9162 96.0795 13.1681C96.524 13.42 97.0178 13.5491 97.5611 13.5552C98.1435 13.5552 98.6724 13.4057 99.1436 13.1046C99.6149 12.8035 99.9976 12.3939 100.29 11.8716L101.951 12.2587C101.562 13.1169 100.975 13.8174 100.193 14.3622C99.4091 14.9071 98.5324 15.1795 97.5611 15.1795ZM94.3941 9.40755H100.726C100.675 8.86681 100.5 8.37114 100.201 7.92462C99.903 7.47811 99.5243 7.11762 99.0654 6.84725C98.6045 6.57688 98.1044 6.4417 97.5591 6.4417C97.0137 6.4417 96.5157 6.57279 96.063 6.83906C95.6103 7.10328 95.2357 7.45967 94.9415 7.90619C94.6472 8.35475 94.464 8.85452 94.392 9.4096L94.3941 9.40755Z" fill="#489E46"/>
<path d="M111.538 5.25986H113.17V15.2368C113.17 15.8738 113.032 16.4698 112.756 17.0208C112.481 17.5718 112.11 18.0511 111.645 18.4607C111.178 18.8704 110.647 19.1899 110.052 19.4173C109.458 19.6467 108.834 19.7614 108.188 19.7614C107.542 19.7614 106.865 19.6118 106.235 19.3108C105.605 19.0097 105.058 18.6103 104.589 18.1125C104.12 17.6128 103.78 17.0536 103.574 16.435L105.07 15.7591C105.194 16.2036 105.416 16.605 105.735 16.9635C106.056 17.3219 106.43 17.6046 106.863 17.8135C107.293 18.0224 107.735 18.1269 108.188 18.1269C108.616 18.1269 109.028 18.0531 109.427 17.9036C109.826 17.7561 110.184 17.5513 110.505 17.2891C110.826 17.029 111.077 16.7218 111.262 16.3715C111.448 16.0213 111.54 15.6424 111.54 15.2348V13.3115C111.211 13.8665 110.775 14.3151 110.233 14.6592C109.692 15.0033 109.063 15.1774 108.344 15.1774C107.626 15.1774 107.013 15.0463 106.412 14.7821C105.809 14.5179 105.282 14.1512 104.829 13.6842C104.377 13.2173 104.021 12.6765 103.761 12.0641C103.502 11.4517 103.373 10.7942 103.373 10.0916C103.373 9.3891 103.502 8.72957 103.761 8.1151C104.021 7.50062 104.377 6.95784 104.829 6.49084C105.282 6.02385 105.811 5.65721 106.412 5.39299C107.015 5.12877 107.659 4.99768 108.344 4.99768C109.03 4.99768 109.692 5.16768 110.233 5.50974C110.775 5.8518 111.209 6.30241 111.54 6.86362V5.25781L111.538 5.25986ZM108.353 13.6044C108.98 13.6044 109.526 13.4426 109.989 13.121C110.452 12.7994 110.81 12.3693 111.061 11.8347C111.314 11.3001 111.439 10.7205 111.439 10.0937C111.439 9.46693 111.312 8.86065 111.057 8.33016C110.801 7.79762 110.441 7.37363 109.978 7.05411C109.515 6.73458 108.972 6.57482 108.35 6.57482C107.729 6.57482 107.186 6.73254 106.68 7.04796C106.173 7.36339 105.774 7.78738 105.48 8.31992C105.186 8.85246 105.037 9.44235 105.037 10.0937C105.037 10.745 105.188 11.3349 105.488 11.8675C105.788 12.4 106.19 12.8219 106.692 13.1333C107.194 13.4467 107.745 13.6023 108.348 13.6023L108.353 13.6044Z" fill="#489E46"/>
<path d="M115.499 14.9275V5.25987H117.131V6.46833C117.475 6.01772 117.909 5.65723 118.432 5.39096C118.955 5.12469 119.527 4.9895 120.142 4.9895C120.517 4.9895 120.881 5.03866 121.231 5.13493L120.57 6.75918C120.305 6.6752 120.045 6.63424 119.792 6.63424C119.307 6.63424 118.862 6.75099 118.457 6.98653C118.051 7.22208 117.73 7.53956 117.489 7.93896C117.249 8.33837 117.129 8.78284 117.129 9.27236V14.9275H115.497H115.499Z" fill="#489E46"/>
<path d="M129.732 5.25987H131.364V14.9275H129.732L129.664 13.2931C129.359 13.8543 128.939 14.309 128.406 14.6572C127.871 15.0054 127.235 15.1795 126.499 15.1795C125.762 15.1795 125.12 15.0463 124.499 14.778C123.877 14.5097 123.328 14.139 122.852 13.6658C122.377 13.1927 122.006 12.6458 121.741 12.0272C121.476 11.4087 121.344 10.7409 121.344 10.0261C121.344 9.31128 121.473 8.68657 121.733 8.07414C121.992 7.46172 122.352 6.92508 122.815 6.46423C123.278 6.00338 123.813 5.64289 124.422 5.38071C125.032 5.12059 125.686 4.9895 126.384 4.9895C127.147 4.9895 127.818 5.1677 128.394 5.52614C128.97 5.88458 129.437 6.34543 129.793 6.9128L129.736 5.25987H129.732ZM126.468 13.6044C127.11 13.6044 127.664 13.4487 128.133 13.1353C128.602 12.822 128.964 12.4 129.221 11.8634C129.476 11.3288 129.604 10.7389 129.604 10.0937C129.604 9.44851 129.474 8.84223 129.215 8.30969C128.956 7.77715 128.592 7.35521 128.122 7.04388C127.653 6.7305 127.102 6.57484 126.466 6.57484C125.83 6.57484 125.241 6.73255 124.717 7.04798C124.192 7.36341 123.776 7.78739 123.47 8.31993C123.161 8.85247 123.009 9.44237 123.009 10.0937C123.009 10.745 123.167 11.3349 123.484 11.8675C123.801 12.4 124.223 12.822 124.748 13.1333C125.272 13.4467 125.844 13.6023 126.466 13.6023L126.468 13.6044Z" fill="#489E46"/>
<path d="M77.9641 38.6072C77.0813 38.6072 76.2314 38.4699 75.4185 38.1955C74.6036 37.921 73.8937 37.5237 73.2866 37.0075C72.6795 36.4913 72.2453 35.8789 71.984 35.1682L74.2311 34.3305C74.3608 34.6971 74.6139 35.0248 74.9864 35.3116C75.3589 35.5983 75.8054 35.8216 76.3219 35.9813C76.8405 36.1411 77.3879 36.223 77.9641 36.223C78.5773 36.223 79.1556 36.1247 79.6968 35.924C80.238 35.7253 80.6764 35.4508 81.0097 35.0985C81.3431 34.7462 81.5119 34.3345 81.5119 33.8594C81.5119 33.3842 81.3369 32.9684 80.9871 32.655C80.6373 32.3416 80.1928 32.0938 79.6516 31.9094C79.1103 31.7251 78.5465 31.5879 77.9641 31.4977C76.8343 31.3134 75.8219 31.0471 74.9288 30.6948C74.0336 30.3425 73.3277 29.851 72.8092 29.216C72.2906 28.5811 72.0313 27.7556 72.0313 26.7397C72.0313 25.7832 72.305 24.9516 72.8544 24.2408C73.4039 23.5301 74.1283 22.9771 75.0317 22.5838C75.9351 22.1906 76.9105 21.9939 77.9641 21.9939C78.8325 21.9939 79.6701 22.1291 80.4809 22.4015C81.2917 22.6719 82.0057 23.0672 82.6231 23.5834C83.2405 24.0995 83.685 24.7242 83.9545 25.4575L81.6847 26.2706C81.5551 25.8958 81.304 25.5701 80.9357 25.2895C80.5673 25.0089 80.1228 24.7898 79.6042 24.63C79.0856 24.4702 78.5383 24.3883 77.9621 24.3883C77.3468 24.3801 76.7726 24.4784 76.2396 24.6812C75.7066 24.884 75.2704 25.1605 74.9329 25.5128C74.5954 25.8651 74.4266 26.2727 74.4266 26.7397C74.4266 27.3132 74.583 27.7495 74.8979 28.0465C75.2127 28.3455 75.6367 28.5647 76.1717 28.706C76.7047 28.8473 77.3015 28.9764 77.9641 29.0911C79.0239 29.259 80.0055 29.5376 80.9069 29.9288C81.8082 30.318 82.5346 30.8362 83.0841 31.4834C83.6335 32.1306 83.9072 32.9233 83.9072 33.8635C83.9072 34.8036 83.6315 35.6434 83.0841 36.3582C82.5346 37.073 81.8082 37.6281 80.9069 38.0214C80.0034 38.4146 79.0239 38.6113 77.9641 38.6113V38.6072Z" fill="#276647"/>
<path d="M91.2826 38.6072C90.2228 38.6072 89.2556 38.3368 88.3851 37.792C87.5126 37.2492 86.8191 36.5221 86.3005 35.6086C85.7819 34.695 85.5226 33.6832 85.5226 32.5751C85.5226 31.7333 85.6729 30.9488 85.9712 30.2196C86.2717 29.4905 86.6833 28.8473 87.2101 28.2923C87.7369 27.7372 88.3481 27.305 89.0477 26.9916C89.7474 26.6782 90.4924 26.5226 91.2826 26.5226C92.3424 26.5226 93.3075 26.793 94.1801 27.3357C95.0526 27.8785 95.7461 28.6077 96.2647 29.5253C96.7832 30.4429 97.0425 31.4588 97.0425 32.5751C97.0425 33.4088 96.8923 34.1891 96.5939 34.9142C96.2935 35.6413 95.8819 36.2804 95.3551 36.8354C94.8283 37.3905 94.2192 37.8227 93.5236 38.1361C92.828 38.4495 92.081 38.6051 91.2826 38.6051V38.6072ZM91.2826 36.223C91.9205 36.223 92.4926 36.0551 92.9988 35.7192C93.5051 35.3833 93.9064 34.9367 94.2027 34.3837C94.499 33.8286 94.6472 33.2265 94.6472 32.5772C94.6472 31.9279 94.4949 31.3011 94.1924 30.7419C93.8899 30.1848 93.4845 29.7383 92.9783 29.4065C92.472 29.0747 91.9061 28.9067 91.2846 28.9067C90.6632 28.9067 90.0849 29.0747 89.5746 29.4106C89.0642 29.7465 88.6609 30.1951 88.3645 30.7522C88.0682 31.3093 87.92 31.9176 87.92 32.5751C87.92 33.2326 88.0744 33.8717 88.381 34.4206C88.6876 34.9716 89.0971 35.4099 89.6075 35.7335C90.1178 36.0592 90.6776 36.221 91.2846 36.221L91.2826 36.223Z" fill="#276647"/>
<path d="M106.408 35.0535L108.55 36.2107C108.027 36.9379 107.365 37.5175 106.562 37.9538C105.76 38.3901 104.889 38.6072 103.953 38.6072C102.893 38.6072 101.926 38.3368 101.055 37.792C100.183 37.2492 99.4893 36.5221 98.9708 35.6086C98.4522 34.695 98.1929 33.6832 98.1929 32.5751C98.1929 31.7333 98.3431 30.9488 98.6415 30.2196C98.9399 29.4905 99.3535 28.8473 99.8803 28.2923C100.407 27.7372 101.018 27.305 101.718 26.9916C102.418 26.6782 103.163 26.5226 103.953 26.5226C104.889 26.5226 105.76 26.7397 106.562 27.176C107.365 27.6122 108.027 28.196 108.55 28.9313L106.408 30.0886C106.085 29.7055 105.708 29.4147 105.278 29.2119C104.848 29.0091 104.406 28.9088 103.953 28.9088C103.323 28.9088 102.753 29.0788 102.243 29.4188C101.732 29.7588 101.329 30.2053 101.033 30.7604C100.736 31.3155 100.588 31.9197 100.588 32.5772C100.588 33.2347 100.738 33.8286 101.037 34.3837C101.335 34.9388 101.741 35.3833 102.253 35.7192C102.763 36.0551 103.329 36.223 103.953 36.223C104.428 36.223 104.883 36.1165 105.313 35.9015C105.743 35.6884 106.107 35.4037 106.408 35.0535Z" fill="#276647"/>
<path d="M111.489 25.1789C111.12 25.1789 110.812 25.0601 110.567 24.8225C110.322 24.5849 110.198 24.288 110.198 23.9275C110.198 23.567 110.322 23.2802 110.567 23.0385C110.812 22.7968 111.116 22.678 111.476 22.678C111.837 22.678 112.129 22.7989 112.376 23.0385C112.621 23.2782 112.744 23.5752 112.744 23.9275C112.744 24.2798 112.623 24.5849 112.382 24.8225C112.139 25.0601 111.843 25.1789 111.489 25.1789ZM110.268 26.8421H112.664V38.3081H110.268V26.8421Z" fill="#276647"/>
<path d="M124.186 26.8421H126.581V38.3081H124.173L124.081 36.645C123.743 37.2328 123.286 37.708 122.71 38.0664C122.134 38.4249 121.455 38.6051 120.671 38.6051C119.825 38.6051 119.031 38.4454 118.286 38.1299C117.541 37.8125 116.886 37.3721 116.323 36.8047C115.759 36.2394 115.318 35.5881 115.004 34.8507C114.689 34.1133 114.53 33.3207 114.53 32.4707C114.53 31.6206 114.685 30.8833 114.991 30.1603C115.298 29.4372 115.724 28.8043 116.269 28.2636C116.814 27.7208 117.446 27.2948 118.164 26.9855C118.883 26.6762 119.652 26.5205 120.475 26.5205C121.299 26.5205 122.052 26.709 122.694 27.0879C123.336 27.4668 123.867 27.9502 124.289 28.5381L124.186 26.8401V26.8421ZM120.615 36.3029C121.29 36.3029 121.883 36.137 122.389 35.8031C122.895 35.4713 123.288 35.0207 123.57 34.4554C123.85 33.8901 123.99 33.2633 123.99 32.5751C123.99 31.8869 123.848 31.2499 123.564 30.6826C123.28 30.1172 122.887 29.6687 122.383 29.3348C121.879 29.003 121.29 28.835 120.615 28.835C119.94 28.835 119.337 29.003 118.784 29.3389C118.23 29.6748 117.792 30.1254 117.471 30.6928C117.148 31.2581 116.987 31.8849 116.987 32.5731C116.987 33.2613 117.154 33.8983 117.489 34.4595C117.823 35.0207 118.265 35.4693 118.815 35.8011C119.364 36.1329 119.965 36.3009 120.617 36.3009L120.615 36.3029Z" fill="#276647"/>
<path d="M128.966 38.3102V21.1091H131.361V38.3081H128.966V38.3102Z" fill="#276647"/>
</svg>
