<svg xmlns="http://www.w3.org/2000/svg" width="248" height="72" fill="none"><script xmlns=""/><path d="M187.463 7.537a.634.634 0 0 1-.714-.632.636.636 0 0 1 .714-.631h5.602a.637.637 0 0 1 0 1.263h-5.602ZM185.042 7.537h-.817a.636.636 0 1 1 0-1.263h.817a.636.636 0 1 1 0 1.263M243.275 65.21a.696.696 0 0 1-.665-.712c.95-25.238-9.903-53.353-43.364-56.6a45.402 45.402 0 0 0-3.617-.21.693.693 0 1 1 0-1.386c1.244 0 2.506.105 3.731.219 22.589 2.184 46.137 18.582 44.608 57.986a.693.693 0 0 1-.693.665M186.408 71.4h-2.25a.692.692 0 0 1 0-1.386h2.25a.693.693 0 1 1 0 1.387M238.612 71.4H188.82a.693.693 0 1 1 0-1.386h49.792a.693.693 0 1 1 0 1.387M12.781 17.516c.5-.176.93-.509 1.225-.95.292-.47.44-1.014.428-1.566a3.353 3.353 0 0 0-.285-1.51 2.64 2.64 0 0 0-.798-1.035 3.447 3.447 0 0 0-1.244-.627 6.091 6.091 0 0 0-1.538-.19H5.822v5.45H3.666a.58.58 0 0 0-.579.58.58.58 0 0 0 .58.589h2.117v5.697H11.1a5.183 5.183 0 0 0 1.557-.276c.452-.13.873-.354 1.234-.655.348-.29.621-.657.798-1.073.194-.468.285-.974.266-1.481a2.849 2.849 0 0 0-2.203-2.953h.028Zm-5.535-4.662h3.228c.342-.002.682.033 1.016.104.287.066.559.188.798.361.229.173.409.402.522.665.155.313.24.657.247 1.006.009.328-.06.653-.2.95-.12.25-.303.467-.531.627a2.155 2.155 0 0 1-.807.35c-.312.068-.63.103-.95.105H7.255l-.01-4.168Zm5.516 9.267a2.991 2.991 0 0 1-1.804.532H7.246v-4.396h3.409c.382-.003.764.035 1.139.114.338.06.66.186.95.37.256.17.462.407.598.683.151.324.22.68.2 1.035a1.898 1.898 0 0 1-.723 1.653M33.386 12.854h1.984v-1.149l-5.43-.019-.01 1.158h1.984l-.028 9.951-2.118-.01-.01 1.178 5.726.02v-1.178l-2.127-.01.029-9.941ZM56.44 18.826h4.368a4.977 4.977 0 0 1-.465 1.766c-.226.48-.549.907-.95 1.254a3.96 3.96 0 0 1-1.395.75 5.697 5.697 0 0 1-1.747.256 4.69 4.69 0 0 1-1.9-.39 4.358 4.358 0 0 1-1.462-1.034 4.748 4.748 0 0 1-.95-1.576 5.495 5.495 0 0 1-.246-1.054h.693a.589.589 0 1 0 0-1.168h-.75a5.811 5.811 0 0 1 .313-1.719c.211-.582.534-1.117.95-1.576a4.444 4.444 0 0 1 1.472-1.054 4.653 4.653 0 0 1 1.899-.38c.44-.003.878.039 1.31.124.4.072.787.203 1.149.39.357.185.678.433.95.73.276.333.492.712.636 1.12h1.433a4.538 4.538 0 0 0-.797-1.652 4.748 4.748 0 0 0-1.282-1.148 6.17 6.17 0 0 0-1.605-.675 7.352 7.352 0 0 0-1.756-.218 6.504 6.504 0 0 0-2.403.437 5.812 5.812 0 0 0-1.899 1.272 5.696 5.696 0 0 0-1.31 1.985 6.712 6.712 0 0 0-.475 2.354h-1.263a.589.589 0 0 0 0 1.168h1.235c.065.568.2 1.126.399 1.662.29.748.73 1.43 1.29 2.003.542.55 1.187.987 1.9 1.282a6.219 6.219 0 0 0 2.421.466 6.325 6.325 0 0 0 3.38-.855 5.128 5.128 0 0 0 2.099-2.516c.2-.494.337-1.01.408-1.538.068-.548.094-1.1.076-1.653H56.47l-.029 1.187ZM93.983 13.652a5.601 5.601 0 0 0-1.9-1.32 6.256 6.256 0 0 0-2.515-.485h-4.359v5.802h-1.063a.589.589 0 0 0 0 1.168h1.073v5.308h4.358a6.477 6.477 0 0 0 2.526-.475 5.43 5.43 0 0 0 3.057-3.257c.273-.775.411-1.59.409-2.412a6.96 6.96 0 0 0-.4-2.374 5.782 5.782 0 0 0-1.158-1.955h-.028Zm-.219 6.228a4.424 4.424 0 0 1-.95 1.529 4.016 4.016 0 0 1-1.423.997 4.748 4.748 0 0 1-1.9.351h-2.848v-3.95h.883a.588.588 0 0 0 0-1.168h-.883v-4.405h2.849c.652-.012 1.299.114 1.899.37.54.235 1.026.58 1.424 1.016.413.418.736.915.95 1.462a5.83 5.83 0 0 1 0 3.798ZM115.233 11.857l-3.798 8.042h-1.529a.618.618 0 0 0-.437 1.057.629.629 0 0 0 .437.187h.95l-1.349 2.849v.19h1.529l1.443-3.03h6.134l1.434 3.039h1.51v-.2l-5.631-12.144-.693.01Zm-2.279 8.023 2.592-5.697 2.564 5.745-5.156-.048ZM134.338 13.281l3.788.01-.028 10.957 1.415.01.028-10.967 3.798.01V11.99l-9.001-.029v1.32ZM162.49 11.98h-.664l-3.798 8.033h-1.121a.625.625 0 0 0-.648.88.626.626 0 0 0 .648.364h.532l-1.358 2.849v.19h1.529l1.443-3.03h6.143l1.434 3.039h1.51v-.2l-5.65-12.125Zm-2.943 8.033 2.592-5.697 2.564 5.697h-5.156ZM2.945 29.917H.96a.446.446 0 0 1 0-.884h1.985a.437.437 0 1 1 0 .874M171.026 29.936l-108.187-.048a.447.447 0 0 1 0-.883l108.187.057a.437.437 0 0 1 .437.437.446.446 0 0 1-.437.437M60.731 29.936l-44.37-.048a.447.447 0 1 1 0-.883l44.37.057a.435.435 0 0 1 .313.746.446.446 0 0 1-.313.128M14.159 29.917h-9.22a.446.446 0 0 1 0-.884h9.22a.437.437 0 0 1 0 .874M22.495 43.048a1.12 1.12 0 0 1-1.273-.218 8.926 8.926 0 0 0-6.542-2.706c-4.149 0-6.171 1.756-6.171 3.988 0 2.554 3.085 3.294 6.646 3.722 6.172.74 11.917 2.335 11.917 9.41 0 6.646-5.85 9.494-12.448 9.494-5.698 0-10.16-1.642-12.496-6.323a1.063 1.063 0 0 1 .475-1.434l2.848-1.443a1.054 1.054 0 0 1 1.387.427c1.538 2.611 4.68 3.798 7.918 3.798 3.514 0 6.808-1.225 6.808-4.472 0-2.763-2.924-3.931-6.855-4.358-6.096-.77-11.679-2.384-11.679-9.04 0-6.058 6.01-8.545 11.489-8.612 4.254 0 8.612 1.12 11.062 4.843a1.101 1.101 0 0 1-.37 1.538l-2.716 1.386ZM60.998 51.347C60.893 59 57.276 66.662 46.85 66.662s-14.243-7.5-14.243-15.315c0-7.815 3.931-15.638 14.243-15.638 10.312 0 14.243 7.871 14.148 15.638Zm-22.788.104c.114 4.89 1.709 10.103 8.669 10.103 6.96 0 8.545-5.26 8.678-10.16.133-4.899-1.71-10.577-8.678-10.577-6.97 0-8.85 5.65-8.698 10.634M92.597 60.813a1.055 1.055 0 0 1-.057 1.539 15.733 15.733 0 0 1-10.444 3.674c-11.005 0-15.686-7.596-15.743-15.325-.057-7.729 5.023-15.629 15.762-15.629A15.259 15.259 0 0 1 92.17 38.87a1.054 1.054 0 0 1 0 1.548l-2.203 2.099a.949.949 0 0 1-1.376 0 10.283 10.283 0 0 0-6.438-2.175c-7.178 0-10.264 5.374-10.207 10.312.057 4.937 2.848 10.055 10.207 10.055a11.08 11.08 0 0 0 6.75-2.393 1.045 1.045 0 0 1 1.387.057l2.307 2.44ZM99.614 36.345h6.542a1.076 1.076 0 0 1 1.064 1.063v27.536a1.076 1.076 0 0 1-1.064 1.063H102.7a1.02 1.02 0 0 1-.733-.317 1.042 1.042 0 0 1-.283-.746V42.412a1.03 1.03 0 0 0-.317-.733 1.018 1.018 0 0 0-.746-.283h-1.007a1.064 1.064 0 0 1-1.101-1.063v-2.925a1.063 1.063 0 0 1 1.063-1.063M132.477 36.971l12.344 27.536a1.07 1.07 0 0 1-.452 1.354 1.062 1.062 0 0 1-.498.137h-3.798a1.093 1.093 0 0 1-.949-.646l-1.899-4.301a1.054 1.054 0 0 0-.95-.636h-14.147a1.057 1.057 0 0 0-.95.636l-1.994 4.406a1.137 1.137 0 0 1-.949.588h-3.798a1.062 1.062 0 0 1-.95-1.49l9.714-21.611a1.059 1.059 0 0 0-.077-1 1.067 1.067 0 0 0-.873-.491h-.427a1.073 1.073 0 0 1-1.064-1.063v-2.982a1.076 1.076 0 0 1 1.064-1.063h9.732a1.057 1.057 0 0 1 .95.636l-.029-.01Zm-7.947 18.26h9.362a.533.533 0 0 0 .475-.75l-4.71-10.74a.517.517 0 0 0-.474-.304.528.528 0 0 0-.475.304l-4.748 10.74a.57.57 0 0 0 .07.513.562.562 0 0 0 .462.236M157.744 60.861h13.131a1.063 1.063 0 0 1 1.064 1.063v3.039a1.072 1.072 0 0 1-.312.752 1.065 1.065 0 0 1-.752.311H152.16a1.065 1.065 0 0 1-1.063-1.063v-22.55a1.025 1.025 0 0 0-.67-.95 1.028 1.028 0 0 0-.403-.067h-1.006a1.063 1.063 0 0 1-1.064-1.063v-2.925a1.061 1.061 0 0 1 1.064-1.063h6.599a1.073 1.073 0 0 1 1.063 1.063V59.76a1.061 1.061 0 0 0 1.064 1.063M211.666 51.043a.408.408 0 0 1-.408-.39v-3.19c0-2.64.047-4.548-.997-5.602-.798-.807-2.279-1.186-4.653-1.186a4.994 4.994 0 0 0-3.418.949 4.395 4.395 0 0 0-1.13 3.4.41.41 0 0 1-.404.47.404.404 0 0 1-.31-.143.408.408 0 0 1-.093-.328c0-1.899.446-3.2 1.377-4.035a5.751 5.751 0 0 1 3.959-1.12c2.64 0 4.254.436 5.232 1.424 1.282 1.3 1.263 3.351 1.234 6.18v3.153a.398.398 0 0 1-.389.418ZM194.717 65.333a.388.388 0 0 1-.38-.39v-9.171a.39.39 0 0 1 .389-.39.39.39 0 0 1 .39.39v9.172a.39.39 0 0 1-.39.39M194.783 39.27a2.115 2.115 0 0 1-.38 0 2.603 2.603 0 0 1-1.652-1.083 5.104 5.104 0 0 1-.38-2.355 2.201 2.201 0 0 1 2.421-1.785 2.233 2.233 0 0 1 2.469 1.757 5.22 5.22 0 0 1-.399 2.354c-.381.56-.968.945-1.633 1.073h-.408l-.038.038Zm.038-4.492c-.731 0-1.538.332-1.614 1.064a4.388 4.388 0 0 0 .256 1.889c.262.364.652.615 1.092.703.17.028.343.028.513 0 .431-.091.813-.338 1.073-.694a4.553 4.553 0 0 0 .285-1.898c-.076-.732-.893-1.064-1.615-1.073l.01.009ZM188.554 51.261h-.048a.409.409 0 0 1-.36-.446l.949-8.023c.171-1.994 2.934-2.849 5.422-2.906 2.487-.057 5.089.893 5.241 2.849l.076 2.26a.407.407 0 0 1-.408.408.408.408 0 0 1-.409-.408l-.066-2.241c-.114-1.358-2.317-2.089-4.434-2.089-2.194 0-4.472.74-4.586 2.174l-.95 8.033a.401.401 0 0 1-.399.351" fill="#1d696f"/><path d="M192.314 65.343a.406.406 0 0 1-.408-.409V56.39h-2.44l1.51-12.553a.409.409 0 0 1 .795-.061c.014.05.018.104.012.156l-1.406 11.65h2.346v9.306a.407.407 0 0 1-.409.408M200.006 50.35h-.295a2.004 2.004 0 0 1-1.282-.836 3.808 3.808 0 0 1-.304-1.775 1.693 1.693 0 0 1 1.9-1.386 1.708 1.708 0 0 1 1.899 1.395 3.808 3.808 0 0 1-.304 1.776 1.964 1.964 0 0 1-1.263.816h-.323l-.028.01Zm.028-3.21c-.465 0-1.016.172-1.063.656-.028.432.033.865.18 1.272.18.235.44.394.731.446.112.029.23.029.342 0a1.18 1.18 0 0 0 .703-.446 3.27 3.27 0 0 0 .189-1.263c-.047-.493-.607-.664-1.073-.664h-.009Z" fill="#1d696f"/><path d="M200.205 51.831h-1.709a2.659 2.659 0 0 1-1.434-.494l-3.466-2.487a.41.41 0 0 1 .332-.73c.052.012.1.034.143.065l3.466 2.497c.279.198.608.314.949.333h3.029c.343-.015.673-.13.95-.333l3.988-2.848a.405.405 0 0 1 .453-.014.415.415 0 0 1 .117.109.419.419 0 0 1-.095.57l-3.988 2.848c-.42.299-.919.464-1.434.475h-1.377M200.006 64.336a.41.41 0 0 1-.408-.408v-5.27a.41.41 0 0 1 .408-.408.401.401 0 0 1 .399.408v5.27a.407.407 0 0 1-.409.408M205.941 62.114a.417.417 0 0 1-.409-.408v-5.934a.395.395 0 0 1 .114-.288.394.394 0 0 1 .285-.12.41.41 0 0 1 .408.408v5.934a.41.41 0 0 1-.408.408M209.501 60.206a.396.396 0 0 1-.377-.244.392.392 0 0 1-.031-.155V43.979a.41.41 0 0 1 .408-.408.41.41 0 0 1 .408.408v15.828a.392.392 0 0 1-.12.285.4.4 0 0 1-.288.114ZM205.93 39.298c-.13.011-.26.011-.39 0a2.603 2.603 0 0 1-1.69-1.111 5.366 5.366 0 0 1-.398-2.421 2.286 2.286 0 0 1 2.487-1.833 2.298 2.298 0 0 1 2.488 1.842 5.397 5.397 0 0 1-.408 2.421 2.64 2.64 0 0 1-1.671 1.102h-.428.01Zm-.01-4.587c-.75 0-1.595.342-1.68 1.102a4.742 4.742 0 0 0 .284 1.899c.278.375.683.636 1.14.731.176.029.356.029.532 0a1.9 1.9 0 0 0 1.12-.721 4.675 4.675 0 0 0 .294-1.9c-.076-.76-.949-1.11-1.68-1.11h-.01Z" fill="#1d696f"/><path d="M203.12 48.726a.406.406 0 0 1-.408-.408v-4.216a.394.394 0 0 1 .113-.288.412.412 0 0 1 .286-.12.401.401 0 0 1 .399.408v4.264a.407.407 0 0 1-.409.408M197.262 65.2a.417.417 0 0 1-.408-.408l-.105-10.388a1.44 1.44 0 0 0-.541-1.101c-.949-.76-2.848-2.336-2.924-2.355a.402.402 0 0 1-.09-.446.404.404 0 0 1 .09-.133.417.417 0 0 1 .569 0s2.004 1.586 2.906 2.345a2.263 2.263 0 0 1 .845 1.719l.104 10.387a.419.419 0 0 1-.399.418l-.047-.038Z" fill="#1d696f"/><path d="M193.207 10.822h-7.245a2.591 2.591 0 0 0-2.573 2.602v51.453a2.332 2.332 0 0 0 1.427 2.155c.282.119.584.18.889.181h50.619a2.592 2.592 0 0 0 2.582-2.601v-7.596c0-25.495-20.499-46.232-45.699-46.232v.038Zm-7.245 1.253h7.245a43.987 43.987 0 0 1 31.713 13.521 1.708 1.708 0 0 0-1.092-.418l-39.157-.094v-11.66a1.29 1.29 0 0 1 .374-.923 1.294 1.294 0 0 1 .917-.388v-.038Zm38.161 53.856h-22.618a33.653 33.653 0 0 0 20.652-17.974 34.745 34.745 0 0 1 1.975 11.48l-.009 6.494Zm-9.22-32.017a29.911 29.911 0 0 0-11.945-7.463h20.889a.466.466 0 0 1 .33.152c.043.046.076.1.097.158.022.059.032.121.029.184v5.934a34.172 34.172 0 0 1-2.089 11.679 35.739 35.739 0 0 0-7.273-10.691l-.038.047Zm-30.232 30.963V26.403h10.226a27.208 27.208 0 0 1 19.123 8.366 34.856 34.856 0 0 1 7.501 11.47 32.18 32.18 0 0 1-25.789 19.55c-.569.066-1.158.095-1.756.114h-8.271a1.04 1.04 0 0 1-.735-.313 1.036 1.036 0 0 1-.299-.741v.028Zm52.944-.294a1.308 1.308 0 0 1-1.291 1.32h-10.948v-6.495a36.175 36.175 0 0 0-2.478-13.103 35.386 35.386 0 0 0 2.649-13.379v-5.924c0-.386-.123-.762-.351-1.073a45.085 45.085 0 0 1 12.419 31.125v7.53Z" fill="#1d696f"/><path d="M207.278 50.464a.4.4 0 0 0-.119-.289.406.406 0 0 0-.289-.12.37.37 0 0 0-.247.086s-2.051 1.652-3.181 2.516a2.258 2.258 0 0 0-.902 1.842l.162 8.318a.417.417 0 0 0 .408.399.416.416 0 0 0 .399-.418l-.171-8.318a1.437 1.437 0 0 1 .57-1.177c1.13-.874 3.181-2.526 3.181-2.526a.403.403 0 0 0 .151-.313M246.636 45.327a.636.636 0 0 1-.608-.494 59.3 59.3 0 0 0-.949-3.921.62.62 0 0 1 .052-.474.627.627 0 0 1 1.144.122 52.56 52.56 0 0 1 1.007 4.017.629.629 0 0 1-.485.731h-.132M244.984 39.003a.625.625 0 0 1-.598-.465C238.765 16.7 219.024 2.742 192.875 2.134c-2.165 0-5.545 0-8.261.085h-.579a.629.629 0 0 1-.55-.622.628.628 0 0 1 .55-.621h.579c2.725-.057 6.125-.133 8.318-.086 26.729.627 46.925 14.926 52.688 37.335a.623.623 0 0 1-.446.76h-.162M247.376 49.154a.626.626 0 0 1-.617-.542l-.19-1.433a.63.63 0 0 1 .546-.63.625.625 0 0 1 .689.468l.19 1.434a.624.624 0 0 1-.301.624.62.62 0 0 1-.231.079h-.086" fill="#1d696f"/><script xmlns=""/></svg>