<svg width="269" height="60" viewBox="0 0 269 60" fill="none" xmlns="http://www.w3.org/2000/svg">
<path d="M0.0946045 30.4219C0.126139 30.2836 0.174366 30.1916 0.186682 30.0951C0.348221 28.8289 0.431461 27.5476 0.678097 26.2983C1.15099 23.9031 1.98924 21.6195 3.12325 19.4567C3.97312 17.8359 4.93778 16.2774 6.13281 14.8819C7.00886 13.859 7.9002 12.8435 8.85535 11.8955C9.52541 11.2305 10.2717 10.6203 11.0596 10.0997C12.5141 9.13852 13.9819 8.18084 15.5233 7.37152C17.0383 6.57603 18.6269 5.9152 20.2952 5.4595C22.0146 4.98984 23.7528 4.66786 25.528 4.5251C26.172 4.4733 26.8135 4.38981 27.4877 4.31738C27.7371 5.41001 27.5367 6.49938 27.6316 7.64178C27.3132 7.64178 27.0361 7.63409 26.7594 7.64302C24.8005 7.70629 22.8804 7.95991 20.9903 8.53369C19.4747 8.99378 18.0215 9.59328 16.6558 10.3538C15.2748 11.1228 13.9748 12.0491 12.6952 12.9828C11.8498 13.5996 11.0399 14.2923 10.3278 15.0565C9.38923 16.0637 8.49148 17.1255 7.70707 18.2544C6.9381 19.3611 6.27448 20.552 5.67017 21.7586C4.77309 23.5496 4.18628 25.4474 3.75638 27.4154C3.2826 29.5842 3.26829 31.7605 3.3241 33.9447C3.36762 35.6474 3.77809 37.3034 4.19603 38.9531C4.5674 40.4191 5.11485 41.8168 5.79345 43.1576C6.61424 44.7794 7.61825 46.2921 8.79253 47.6854C9.38813 48.3921 9.94519 49.1449 10.621 49.7673C11.6116 50.6798 12.6572 51.5433 13.7464 52.3359C14.7907 53.0958 15.8902 53.7937 17.0224 54.4156C17.922 54.9098 18.8876 55.3055 19.86 55.6408C21.0081 56.0366 22.1898 56.3407 23.3676 56.6435C23.8863 56.7768 24.4296 56.8601 24.9646 56.8772C26.737 56.9337 28.5141 57.0332 30.283 56.961C32.6691 56.8637 34.9585 56.2982 37.1635 55.3286C39.5113 54.2962 41.6791 52.9746 43.689 51.4175C45.0575 50.3571 46.2002 49.041 47.3082 47.691C48.716 45.9757 49.7879 44.0836 50.7063 42.0915C51.4854 40.4015 52.0561 38.6278 52.3595 36.797C52.5712 35.5191 52.6075 34.2073 52.6469 32.9084C52.6619 32.4114 52.8859 32.2771 53.2768 32.2696C54.157 32.2527 55.0378 32.2643 55.9936 32.2643C55.9465 33.1811 55.9199 34.0774 55.8477 34.9699C55.797 35.5963 55.7091 36.2223 55.593 36.8401C55.413 37.7973 55.2487 38.7627 54.9819 39.6974C54.3866 41.7829 53.6529 43.8284 52.563 45.7089C51.8568 46.9274 51.0345 48.0881 50.174 49.2055C49.4398 50.159 48.592 51.028 47.7673 51.909C46.4736 53.291 45.0857 54.5806 43.449 55.545C42.0911 56.3451 40.6686 57.0369 39.2672 57.7624C37.8248 58.5092 36.2767 58.978 34.7125 59.3769C33.7807 59.6145 32.8203 59.745 31.869 59.9007C31.4432 59.9704 31.0081 59.9836 30.5587 60.0585C29.0885 60.0947 27.6368 60.0947 26.1228 60.0579C24.5803 59.8264 23.0949 59.6641 21.6212 59.4291C19.6798 59.1196 17.8523 58.4304 16.0838 57.5951C15.2429 57.198 14.4347 56.7298 13.6223 56.2752C12.0978 55.422 10.7038 54.3754 9.42442 53.2005C8.23446 52.1077 7.05275 50.9884 6.12647 49.6469C5.18103 48.2775 4.17495 46.9408 3.34398 45.5043C2.40718 43.8848 1.63803 42.1637 1.21901 40.3255C0.864837 38.7717 0.589245 37.2001 0.285737 35.635C0.208621 35.2374 0.15761 34.8347 0.0946046 34.4343C0.0946046 33.1116 0.0946046 31.7889 0.0946045 30.4219Z" fill="#357054"/>
<path d="M269.095 6.09627C268.781 6.32009 268.46 6.499 268.154 6.69852C265.918 8.1524 263.688 9.61339 261.452 11.066C260.224 11.8635 258.982 12.6394 257.763 13.449C257.544 13.5943 257.42 13.6121 257.251 13.4204C256.304 12.3473 255.353 11.2776 254.404 10.2071C254.135 9.90414 253.875 9.59248 253.593 9.30275C253.399 9.10383 253.33 9.00031 253.613 8.7752C255.2 7.51111 256.767 6.22017 258.334 4.93029C259.663 3.8363 260.979 2.72769 262.308 1.63279C262.916 1.13113 263.539 0.646863 264.167 0.124309C264.22 0.0939109 264.262 0.0939109 264.345 0.124728C264.679 0.51274 264.976 0.867502 265.266 1.22759C266.02 2.16272 266.762 3.10723 267.525 4.03427C268.034 4.65129 268.571 5.24468 269.095 5.84863C269.095 5.91938 269.095 5.99014 269.095 6.09627Z" fill="#F5842A"/>
<path d="M60.6098 57.3582C60.25 57.3582 59.9372 57.3582 59.5962 57.3582C59.5962 42.3572 59.5962 27.3834 59.5962 12.3838C62.6632 12.3838 65.7261 12.3838 68.8339 12.3838C68.8339 12.5491 68.8339 12.7017 68.8339 12.8543C68.8339 16.3604 68.8594 19.8668 68.821 23.3725C68.8062 24.7207 68.6433 26.067 68.554 27.4146C68.5379 27.6587 68.5517 27.9047 68.5517 28.1553C69.3719 27.5949 70.1438 27.0141 70.9667 26.5173C72.2983 25.7135 73.7244 25.152 75.2781 24.8939C77.3605 24.5479 79.376 24.7725 81.3407 25.4781C82.5194 25.9014 83.5525 26.5856 84.5227 27.3846C85.9258 28.54 86.9105 29.994 87.6906 31.6013C88.409 33.0816 88.8658 34.6495 89.1635 36.2657C89.5263 38.2355 89.6333 40.2277 89.5257 42.2178C89.3817 44.882 88.9267 47.4921 87.7424 49.9265C87.0612 51.3267 86.2434 52.6268 85.2178 53.8126C83.6725 55.5994 81.7743 56.8237 79.5516 57.5651C78.3099 57.9793 77.0182 58.1934 75.7131 58.0996C73.5963 57.9475 71.6715 57.2222 69.9927 55.9119C69.309 55.3782 68.6693 54.7883 68.0084 54.2254C67.8856 54.1208 67.7573 54.0225 67.5639 53.8668C67.2997 55.085 67.0555 56.2104 66.8066 57.3582C64.7502 57.3582 62.7035 57.3582 60.6098 57.3582ZM76.1621 32.5377C75.026 32.1951 73.898 32.1972 72.7514 32.5303C71.5453 32.8807 70.6139 33.6455 69.6589 34.3997C68.9987 34.921 68.8027 35.541 68.8132 36.38C68.8607 40.1516 68.8443 43.9243 68.8223 47.6964C68.8191 48.2391 68.9511 48.5934 69.4037 48.942C71.0124 50.1812 72.8397 50.6911 74.8084 50.4439C76.6832 50.2084 77.9889 49.0152 78.836 47.38C79.7595 45.5974 80.0012 43.6388 80.0766 41.663C80.1014 41.0117 80.0509 40.3536 79.9842 39.7038C79.8836 38.7244 79.8266 37.7281 79.5937 36.7774C79.1287 34.8795 78.2786 33.2287 76.1621 32.5377Z" fill="#357054"/>
<path d="M219.451 31.876C220.462 28.6449 221.467 25.4514 222.476 22.2593C223.153 20.121 223.836 17.985 224.515 15.8474C224.551 15.7329 224.573 15.6138 224.607 15.4715C225.414 15.4715 226.216 15.4715 227.018 15.4715C229.713 15.4715 232.407 15.4804 235.101 15.462C235.509 15.4592 235.695 15.5694 235.82 15.9723C236.924 19.5214 238.054 23.0625 239.173 26.607C239.704 28.2915 240.225 29.9794 240.757 31.6638C241.672 34.5638 242.593 37.4622 243.51 40.3615C244.238 42.6604 244.966 44.959 245.691 47.2586C246.412 49.544 247.129 51.8304 247.847 54.1164C248.174 55.1569 248.5 56.1977 248.83 57.2496C245.565 57.2496 242.322 57.2496 239.058 57.2496C238.731 55.9959 238.406 54.7502 238.082 53.5045C237.567 51.528 237.049 49.5521 236.54 47.5743C236.448 47.2188 236.297 47.0601 235.875 47.0624C231.92 47.0841 227.965 47.0753 224.01 47.0753C223.87 47.0753 223.729 47.0753 223.56 47.0753C223.294 48.0621 223.026 49.0348 222.771 50.0109C222.165 52.3287 221.569 54.6493 220.95 56.9636C220.917 57.0882 220.704 57.2506 220.574 57.2513C217.55 57.2676 214.525 57.2639 211.434 57.2639C211.753 56.2306 212.055 55.2258 212.372 54.2257C213.329 51.2101 214.293 48.1969 215.252 45.1817C215.791 43.4838 216.328 41.7848 216.86 40.0846C217.701 37.4026 218.537 34.7191 219.376 32.0367C219.39 31.9928 219.423 31.9549 219.451 31.876ZM231.454 28.0883C230.973 26.2107 230.492 24.3331 230.012 22.4555C229.976 22.4568 229.941 22.4581 229.906 22.4594C228.423 28.2973 226.94 34.1352 225.459 39.9689C228.472 39.9689 231.471 39.9689 234.494 39.9689C233.477 36.012 232.469 32.0898 231.454 28.0883Z" fill="#F5842A"/>
<path d="M131.43 45.9303C132.492 48.6707 134.485 50.2838 137.307 50.8325C139.543 51.2671 141.734 50.9826 143.829 50.084C144.518 49.7884 145.175 49.4178 145.842 49.0711C146.104 48.9345 146.259 48.9352 146.423 49.2428C147.304 50.8909 148.211 52.5247 149.112 54.1621C149.163 54.2548 149.237 54.3351 149.345 54.4824C148.904 54.775 148.492 55.0896 148.043 55.3399C145.997 56.481 143.85 57.3767 141.52 57.7229C140.173 57.923 138.803 58.1163 137.448 58.088C133.947 58.0148 130.705 57.0141 127.929 54.835C125.687 53.0753 124.061 50.8318 123.095 48.1238C122.612 46.7713 122.269 45.3976 122.163 43.9682C122.086 42.9297 121.957 41.8871 121.987 40.8502C122.069 37.927 122.648 35.1065 124.161 32.5627C124.778 31.5252 125.515 30.5452 126.297 29.622C127.922 27.7007 129.987 26.3965 132.359 25.5584C133.588 25.1245 134.84 24.8959 136.143 24.7922C138.311 24.6198 140.396 24.911 142.413 25.6687C143.567 26.1021 144.612 26.7363 145.573 27.5348C146.933 28.6651 147.963 30.0392 148.716 31.6061C149.425 33.0814 149.879 34.6442 150.174 36.2703C150.505 38.0896 150.418 39.9079 150.417 41.7283C150.416 42.4145 150.253 43.1025 150.136 43.7848C150.118 43.8888 149.957 43.9923 149.84 44.0476C149.749 44.0901 149.623 44.0564 149.513 44.0564C143.51 44.0564 137.508 44.0564 131.506 44.0564C131.334 44.0564 131.163 44.0564 130.901 44.0564C131.087 44.7034 131.257 45.2979 131.43 45.9303ZM141.219 33.4027C141.013 33.2121 140.822 33.0006 140.597 32.8348C139.758 32.2162 138.816 31.9532 137.769 31.863C136.607 31.7628 135.533 31.9552 134.508 32.4442C132.859 33.23 131.822 34.5649 131.237 36.2619C131.056 36.7847 130.948 37.3321 130.799 37.8957C134.792 37.8957 138.675 37.8957 142.58 37.8957C142.636 36.2478 142.228 34.7714 141.219 33.4027Z" fill="#357054"/>
<path d="M199.603 34.1638C200.202 32.0244 200.799 29.9246 201.395 27.8243C201.587 27.1489 201.759 26.4673 201.98 25.8014C202.017 25.689 202.254 25.5763 202.4 25.5756C205.22 25.5624 208.041 25.5658 210.921 25.5658C210.804 25.9112 210.693 26.2314 210.587 26.5533C209.729 29.1652 208.871 31.7773 208.014 34.3898C207.286 36.6103 206.563 38.8321 205.834 41.0522C205.076 43.3592 204.314 45.6649 203.554 47.9713C202.833 50.1616 202.112 52.3524 201.39 54.5424C201.112 55.3828 200.84 56.2251 200.538 57.0569C200.492 57.1842 200.301 57.3453 200.177 57.3458C196.727 57.3615 193.277 57.3584 189.825 57.3584C186.247 46.7594 182.675 36.1765 179.095 25.5722C182.22 25.5722 185.292 25.5722 188.448 25.5722C190.688 33.8167 192.933 42.0766 195.199 50.4155C195.278 50.2814 195.391 50.1615 195.426 50.0221C196.192 46.9843 196.929 43.9391 197.716 40.9066C198.214 38.9853 198.783 37.0823 199.321 35.1713C199.412 34.8481 199.507 34.5259 199.603 34.1638Z" fill="#357054"/>
<path d="M97.5109 41.0185C96.5837 40.117 95.6954 39.2309 95.1824 38.0462C94.8121 37.1912 94.5946 36.3046 94.5529 35.3761C94.4814 33.7843 94.6203 32.2296 95.2998 30.753C95.9057 29.4361 96.7815 28.351 97.9026 27.4328C99.1878 26.3803 100.644 25.6813 102.239 25.289C103.162 25.0623 104.115 24.96 105.057 24.8145C105.393 24.7625 105.735 24.7269 106.076 24.7201C109.064 24.6607 111.913 25.2149 114.531 26.7078C115.622 27.3296 116.682 28.0034 117.814 28.6886C116.385 30.5986 115.016 32.4283 113.656 34.2447C112.7 33.6912 111.804 33.1374 110.876 32.6426C109.387 31.8483 107.791 31.442 106.098 31.6161C105.152 31.7135 104.195 31.9033 103.613 32.7937C102.723 34.1556 103.131 35.2994 104.284 36.126C105.318 36.8667 106.544 37.193 107.709 37.6514C109.76 38.458 111.864 39.1557 113.725 40.3759C115.934 41.8246 117.468 43.721 117.82 46.4396C118.169 49.1364 117.584 51.5949 115.959 53.7595C114.917 55.148 113.516 56.1201 111.91 56.8182C110.159 57.579 108.334 57.8765 106.444 58.0395C103.588 58.2857 100.874 57.7525 98.2319 56.7761C96.2946 56.06 94.4973 55.0567 92.8809 53.755C92.8332 53.7166 92.7973 53.6637 92.7324 53.5915C94.0976 51.6829 95.4621 49.7754 96.8492 47.8361C97.5256 48.2846 98.1845 48.7458 98.8671 49.1693C100.415 50.1295 102.023 50.9371 103.877 51.1385C105.246 51.2873 106.59 51.3459 107.881 50.7169C109.01 50.1672 109.888 48.3452 108.797 47.0456C108.402 46.5758 107.853 46.1877 107.3 45.9082C106.222 45.3631 105.108 44.8807 103.98 44.4447C101.957 43.6622 99.9764 42.8049 98.2041 41.5312C97.9798 41.37 97.7583 41.2049 97.5109 41.0185Z" fill="#357054"/>
<path d="M257.654 57.2642C256.223 57.2642 254.839 57.2642 253.427 57.2642C253.427 43.3277 253.427 29.4251 253.427 15.4971C256.49 15.4971 259.54 15.4971 262.628 15.4971C262.628 29.3916 262.628 43.2943 262.628 57.2642C260.995 57.2642 259.348 57.2642 257.654 57.2642Z" fill="#F5842A"/>
<path d="M166.222 45.472C166.222 49.4468 166.222 53.3745 166.222 57.3305C163.164 57.3305 160.133 57.3305 157.076 57.3305C157.076 46.7549 157.076 36.1844 157.076 25.5814C157.175 25.576 157.265 25.5671 157.355 25.567C159.608 25.5662 161.862 25.5737 164.115 25.5589C164.481 25.5565 164.585 25.6897 164.623 26.0341C164.757 27.2277 164.934 28.4165 165.079 29.609C165.14 30.109 165.162 30.6136 165.211 31.2283C165.486 30.8084 165.678 30.4702 165.913 30.1654C166.599 29.2752 167.223 28.3175 168.018 27.5339C169.441 26.1303 171.164 25.1707 173.155 24.8276C174.879 24.5307 176.572 24.7624 178.223 25.4222C177.719 28.0356 177.216 30.6474 176.698 33.3337C176.13 33.2136 175.583 33.0904 175.033 32.9832C173.635 32.7106 172.277 32.7913 170.956 33.3881C169.988 33.8255 169.104 34.3712 168.388 35.1568C167.584 36.0392 167.005 37.0647 166.496 38.1412C166.231 38.7031 166.217 39.2694 166.219 39.8598C166.227 41.7148 166.222 43.5698 166.222 45.472Z" fill="#357054"/>
<path d="M19.5943 28.7132C19.7533 28.4112 19.893 28.1405 20.0809 27.7763C20.7563 30.1613 22.1724 31.6122 24.6888 31.2712C26.3655 31.0439 27.547 29.936 27.8753 28.2098C28.26 26.188 27.4744 24.6574 25.5734 23.6371C26.7557 23.3779 27.8472 23.2185 29.0014 23.3735C30.1279 23.5248 31.193 23.7995 32.1915 24.3267C34.838 25.724 36.459 27.8829 37.0744 30.8157C37.4129 32.4294 37.3727 34.0418 36.853 35.5713C35.8991 38.3786 34.0741 40.4369 31.2305 41.5178C29.8945 42.0256 28.5135 42.1826 27.1188 42.0589C25.2939 41.897 23.6533 41.2101 22.2181 40.0491C20.4882 38.6497 19.4168 36.8468 18.9548 34.6945C18.7049 33.5304 18.5899 32.3408 18.9048 31.1596C19.1201 30.3524 19.3511 29.5494 19.5943 28.7132Z" fill="#00A755"/>
<path d="M38.7316 17.5749C36.8656 16.3278 34.908 15.3567 32.7374 14.8856C31.8942 14.7026 31.0268 14.6015 30.165 14.541C29.3498 14.4838 28.527 14.5449 27.7082 14.5256C25.8635 14.482 24.1001 14.8803 22.4593 15.67C20.995 16.3748 19.5505 17.1569 18.2088 18.0685C16.9152 18.9474 15.8798 20.1348 14.8949 21.371C14.0669 22.4104 13.3935 23.5319 12.852 24.7122C12.2996 25.9165 11.8868 27.2005 11.5613 28.487C11.3127 29.4691 11.2956 30.5095 11.1704 31.5678C10.4778 31.5678 9.71583 31.5678 8.87305 31.5678C8.91226 30.9147 8.88999 30.2438 9.00524 29.5973C9.20406 28.4822 9.43843 27.3679 9.75241 26.2804C10.0099 25.3884 10.3945 24.5318 10.7413 23.6669C11.2599 22.3736 12.0048 21.1988 12.8925 20.1439C13.8008 19.0647 14.8388 18.0934 15.8297 17.0843C17.1525 15.7374 18.7927 14.8714 20.4737 14.0732C22.1756 13.2651 23.942 12.6338 25.8279 12.4653C27.2741 12.336 28.7377 12.2083 30.1819 12.2888C33.2669 12.4608 36.2009 13.2694 38.8941 14.82C40.7245 15.8737 42.3441 17.2117 43.7319 18.7928C45.435 20.7334 46.8078 22.8841 47.6685 25.3483C48.226 26.9443 48.5794 28.5706 48.6876 30.2488C48.7569 31.3245 48.8291 32.4082 48.7737 33.4819C48.6595 35.6937 48.1649 37.8283 47.2884 39.875C46.3553 42.0538 45.0784 43.9885 43.479 45.7461C41.5239 47.8945 39.123 49.3408 36.5119 50.5183C34.9838 51.2074 33.3868 51.6359 31.7401 51.8733C30.8332 52.0041 29.9081 52.0082 28.9919 52.0781C28.6693 52.1027 28.5331 51.9892 28.549 51.6512C28.5711 51.1807 28.5661 50.7079 28.5505 50.2368C28.5373 49.8379 28.692 49.6884 29.1039 49.7111C30.8581 49.8077 32.5659 49.5398 34.2215 48.9656C36.5025 48.1745 38.5563 47.0003 40.3966 45.4216C41.7903 44.226 42.9667 42.8565 43.9092 41.3058C45.082 39.3762 45.9546 37.3083 46.2307 35.0406C46.3617 33.9651 46.5276 32.8787 46.4982 31.8022C46.4366 29.5419 46.0152 27.3379 45.094 25.2496C44.3619 23.59 43.3655 22.1059 42.1949 20.7221C41.1837 19.5268 40.0265 18.5044 38.7316 17.5749Z" fill="#F4842A"/>
</svg>
