<svg xmlns="http://www.w3.org/2000/svg" width="338" height="58" fill="none" viewBox="0 0 338 58"><path fill="#475757" d="M25.22 57.801q-7.77 0-13.448-3.467-5.676-3.466-8.724-9.677T0 30.218 3.048 15.78t8.724-9.677q5.678-3.467 13.449-3.467 9.144 0 14.858 4.343 5.715 4.344 7.315 12.268h-7.086q-1.22-4.953-4.953-7.962-3.734-3.01-10.134-3.01-5.64 0-9.867 2.629-4.23 2.628-6.515 7.543-2.286 4.914-2.286 11.772t2.286 11.773 6.515 7.543q4.229 2.628 9.867 2.629 6.4 0 10.134-2.934 3.734-2.933 4.953-7.81h7.086q-1.6 7.695-7.315 12.04Q34.364 57.8 25.221 57.8m44.744 0q-5.333 0-9.524-2.514-4.19-2.515-6.553-7.048-2.362-4.534-2.362-10.554 0-6.095 2.324-10.59 2.324-4.497 6.553-7.01 4.228-2.515 9.715-2.515 5.639 0 9.6 2.514 3.963 2.515 6.058 6.591t2.095 8.953v1.6q0 .839-.076 1.905H56.325V34.18h25.221q-.228-5.257-3.467-8.229-3.239-2.97-8.115-2.971-3.2 0-6.02 1.485-2.818 1.486-4.495 4.344-1.676 2.858-1.676 7.124v2.133q0 4.724 1.714 7.925 1.715 3.2 4.496 4.8a11.8 11.8 0 0 0 5.981 1.6q4.04 0 6.667-1.79 2.63-1.79 3.849-4.915h6.324q-.99 3.506-3.277 6.21t-5.676 4.305q-3.39 1.6-7.887 1.6m35.752 0q-4.648 0-7.771-1.638t-4.648-4.343-1.524-5.905q0-3.887 2.019-6.591 2.018-2.706 5.715-4.115 3.694-1.41 8.724-1.41h10.134q0-3.58-1.105-5.98t-3.2-3.62q-2.096-1.22-5.22-1.22-3.657 0-6.324 1.83-2.667 1.828-3.276 5.41h-6.553q.458-4.116 2.781-6.896 2.325-2.782 5.905-4.268a19.3 19.3 0 0 1 7.467-1.485q5.334 0 8.877 1.943 3.544 1.942 5.296 5.41 1.752 3.466 1.752 8.19v23.774h-5.714l-.381-6.782a14.2 14.2 0 0 1-1.943 3.01 12.6 12.6 0 0 1-2.743 2.438q-1.562 1.029-3.62 1.639-2.056.61-4.648.61m.991-5.41q2.667 0 4.838-1.105a11 11 0 0 0 3.696-3.047 14.4 14.4 0 0 0 2.324-4.305q.8-2.362.8-4.953v-.229h-9.601q-3.733 0-6.019.876-2.286.877-3.276 2.439-.99 1.561-.991 3.543 0 2.057.952 3.581.953 1.524 2.82 2.362t4.457.838m24.78 4.496V18.484h5.791l.457 7.315q1.296-2.59 3.315-4.42 2.019-1.828 4.876-2.819t6.515-.99v6.705h-2.362q-2.438 0-4.648.648a10.65 10.65 0 0 0-3.924 2.095q-1.715 1.447-2.667 3.924t-.952 6.134v19.81zm37.505.914q-4.648 0-7.772-1.638t-4.648-4.343-1.524-5.905q0-3.887 2.019-6.591 2.019-2.706 5.715-4.115t8.724-1.41h10.134q0-3.58-1.104-5.98-1.106-2.401-3.201-3.62t-5.219-1.22q-3.658 0-6.324 1.83-2.668 1.828-3.277 5.41h-6.553q.458-4.116 2.781-6.896 2.325-2.782 5.906-4.268a19.3 19.3 0 0 1 7.467-1.485q5.334 0 8.877 1.943 3.543 1.942 5.295 5.41 1.753 3.466 1.753 8.19v23.774h-5.715l-.381-6.782a14.2 14.2 0 0 1-1.943 3.01 12.6 12.6 0 0 1-2.743 2.438q-1.562 1.029-3.619 1.639t-4.648.61m.99-5.41q2.667 0 4.839-1.105a11 11 0 0 0 3.695-3.047 14.4 14.4 0 0 0 2.324-4.305q.8-2.362.8-4.953v-.229h-9.6q-3.734 0-6.02.876-2.286.877-3.276 2.439-.991 1.561-.991 3.543 0 2.057.953 3.581.952 1.524 2.819 2.362t4.457.838m-5.79-37.183-.686-4.572L178.821.883l.914 5.486z"></path><path fill="#475757" d="M25.22 57.801q-7.77 0-13.448-3.467-5.676-3.466-8.724-9.677T0 30.218 3.048 15.78t8.724-9.677q5.678-3.467 13.449-3.467 9.144 0 14.858 4.343 5.715 4.344 7.315 12.268h-7.086q-1.22-4.953-4.953-7.962-3.734-3.01-10.134-3.01-5.64 0-9.867 2.629-4.23 2.628-6.515 7.543-2.286 4.914-2.286 11.772t2.286 11.773 6.515 7.543q4.229 2.628 9.867 2.629 6.4 0 10.134-2.934 3.734-2.933 4.953-7.81h7.086q-1.6 7.695-7.315 12.04Q34.364 57.8 25.221 57.8m44.744 0q-5.333 0-9.524-2.514-4.19-2.515-6.553-7.048-2.362-4.534-2.362-10.554 0-6.095 2.324-10.59 2.324-4.497 6.553-7.01 4.228-2.515 9.715-2.515 5.639 0 9.6 2.514 3.963 2.515 6.058 6.591t2.095 8.953v1.6q0 .839-.076 1.905H56.325V34.18h25.221q-.228-5.257-3.467-8.229-3.239-2.97-8.115-2.971-3.2 0-6.02 1.485-2.818 1.486-4.495 4.344-1.676 2.858-1.676 7.124v2.133q0 4.724 1.714 7.925 1.715 3.2 4.496 4.8a11.8 11.8 0 0 0 5.981 1.6q4.04 0 6.667-1.79 2.63-1.79 3.849-4.915h6.324q-.99 3.506-3.277 6.21t-5.676 4.305q-3.39 1.6-7.887 1.6m35.752 0q-4.648 0-7.771-1.638t-4.648-4.343-1.524-5.905q0-3.887 2.019-6.591 2.018-2.706 5.715-4.115 3.694-1.41 8.724-1.41h10.134q0-3.58-1.105-5.98t-3.2-3.62q-2.096-1.22-5.22-1.22-3.657 0-6.324 1.83-2.667 1.828-3.276 5.41h-6.553q.458-4.116 2.781-6.896 2.325-2.782 5.905-4.268a19.3 19.3 0 0 1 7.467-1.485q5.334 0 8.877 1.943 3.544 1.942 5.296 5.41 1.752 3.466 1.752 8.19v23.774h-5.714l-.381-6.782a14.2 14.2 0 0 1-1.943 3.01 12.6 12.6 0 0 1-2.743 2.438q-1.562 1.029-3.62 1.639-2.056.61-4.648.61m.991-5.41q2.667 0 4.838-1.105a11 11 0 0 0 3.696-3.047 14.4 14.4 0 0 0 2.324-4.305q.8-2.362.8-4.953v-.229h-9.601q-3.733 0-6.019.876-2.286.877-3.276 2.439-.99 1.561-.991 3.543 0 2.057.952 3.581.953 1.524 2.82 2.362t4.457.838m24.78 4.496V18.484h5.791l.457 7.315q1.296-2.59 3.315-4.42 2.019-1.828 4.876-2.819t6.515-.99v6.705h-2.362q-2.438 0-4.648.648a10.65 10.65 0 0 0-3.924 2.095q-1.715 1.447-2.667 3.924t-.952 6.134v19.81zm37.505.914q-4.648 0-7.772-1.638t-4.648-4.343-1.524-5.905q0-3.887 2.019-6.591 2.019-2.706 5.715-4.115t8.724-1.41h10.134q0-3.58-1.104-5.98-1.106-2.401-3.201-3.62t-5.219-1.22q-3.658 0-6.324 1.83-2.668 1.828-3.277 5.41h-6.553q.458-4.116 2.781-6.896 2.325-2.782 5.906-4.268a19.3 19.3 0 0 1 7.467-1.485q5.334 0 8.877 1.943 3.543 1.942 5.295 5.41 1.753 3.466 1.753 8.19v23.774h-5.715l-.381-6.782a14.2 14.2 0 0 1-1.943 3.01 12.6 12.6 0 0 1-2.743 2.438q-1.562 1.029-3.619 1.639t-4.648.61m.99-5.41q2.667 0 4.839-1.105a11 11 0 0 0 3.695-3.047 14.4 14.4 0 0 0 2.324-4.305q.8-2.362.8-4.953v-.229h-9.6q-3.734 0-6.02.876-2.286.877-3.276 2.439-.991 1.561-.991 3.543 0 2.057.953 3.581.952 1.524 2.819 2.362t4.457.838m-5.79-37.183-.686-4.572L178.821.883l.914 5.486z"></path><path fill="#475757" d="M25.22 57.801q-7.77 0-13.448-3.467-5.676-3.466-8.724-9.677T0 30.218 3.048 15.78t8.724-9.677q5.678-3.467 13.449-3.467 9.144 0 14.858 4.343 5.715 4.344 7.315 12.268h-7.086q-1.22-4.953-4.953-7.962-3.734-3.01-10.134-3.01-5.64 0-9.867 2.629-4.23 2.628-6.515 7.543-2.286 4.914-2.286 11.772t2.286 11.773 6.515 7.543q4.229 2.628 9.867 2.629 6.4 0 10.134-2.934 3.734-2.933 4.953-7.81h7.086q-1.6 7.695-7.315 12.04Q34.364 57.8 25.221 57.8m44.744 0q-5.333 0-9.524-2.514-4.19-2.515-6.553-7.048-2.362-4.534-2.362-10.554 0-6.095 2.324-10.59 2.324-4.497 6.553-7.01 4.228-2.515 9.715-2.515 5.639 0 9.6 2.514 3.963 2.515 6.058 6.591t2.095 8.953v1.6q0 .839-.076 1.905H56.325V34.18h25.221q-.228-5.257-3.467-8.229-3.239-2.97-8.115-2.971-3.2 0-6.02 1.485-2.818 1.486-4.495 4.344-1.676 2.858-1.676 7.124v2.133q0 4.724 1.714 7.925 1.715 3.2 4.496 4.8a11.8 11.8 0 0 0 5.981 1.6q4.04 0 6.667-1.79 2.63-1.79 3.849-4.915h6.324q-.99 3.506-3.277 6.21t-5.676 4.305q-3.39 1.6-7.887 1.6m35.752 0q-4.648 0-7.771-1.638t-4.648-4.343-1.524-5.905q0-3.887 2.019-6.591 2.018-2.706 5.715-4.115 3.694-1.41 8.724-1.41h10.134q0-3.58-1.105-5.98t-3.2-3.62q-2.096-1.22-5.22-1.22-3.657 0-6.324 1.83-2.667 1.828-3.276 5.41h-6.553q.458-4.116 2.781-6.896 2.325-2.782 5.905-4.268a19.3 19.3 0 0 1 7.467-1.485q5.334 0 8.877 1.943 3.544 1.942 5.296 5.41 1.752 3.466 1.752 8.19v23.774h-5.714l-.381-6.782a14.2 14.2 0 0 1-1.943 3.01 12.6 12.6 0 0 1-2.743 2.438q-1.562 1.029-3.62 1.639-2.056.61-4.648.61m.991-5.41q2.667 0 4.838-1.105a11 11 0 0 0 3.696-3.047 14.4 14.4 0 0 0 2.324-4.305q.8-2.362.8-4.953v-.229h-9.601q-3.733 0-6.019.876-2.286.877-3.276 2.439-.99 1.561-.991 3.543 0 2.057.952 3.581.953 1.524 2.82 2.362t4.457.838m24.78 4.496V18.484h5.791l.457 7.315q1.296-2.59 3.315-4.42 2.019-1.828 4.876-2.819t6.515-.99v6.705h-2.362q-2.438 0-4.648.648a10.65 10.65 0 0 0-3.924 2.095q-1.715 1.447-2.667 3.924t-.952 6.134v19.81zm37.505.914q-4.648 0-7.772-1.638t-4.648-4.343-1.524-5.905q0-3.887 2.019-6.591 2.019-2.706 5.715-4.115t8.724-1.41h10.134q0-3.58-1.104-5.98-1.106-2.401-3.201-3.62t-5.219-1.22q-3.658 0-6.324 1.83-2.668 1.828-3.277 5.41h-6.553q.458-4.116 2.781-6.896 2.325-2.782 5.906-4.268a19.3 19.3 0 0 1 7.467-1.485q5.334 0 8.877 1.943 3.543 1.942 5.295 5.41 1.753 3.466 1.753 8.19v23.774h-5.715l-.381-6.782a14.2 14.2 0 0 1-1.943 3.01 12.6 12.6 0 0 1-2.743 2.438q-1.562 1.029-3.619 1.639t-4.648.61m.99-5.41q2.667 0 4.839-1.105a11 11 0 0 0 3.695-3.047 14.4 14.4 0 0 0 2.324-4.305q.8-2.362.8-4.953v-.229h-9.6q-3.734 0-6.02.876-2.286.877-3.276 2.439-.991 1.561-.991 3.543 0 2.057.953 3.581.952 1.524 2.819 2.362t4.457.838m-5.79-37.183-.686-4.572L178.821.883l.914 5.486zM244.236 14.952q-3.483 0-5.661-2.003t-2.177-5.05q0-3.135 2.177-5.139Q240.753.76 244.236.758q3.57 0 5.791 2.002 2.22 2.003 2.22 5.139 0 3.047-2.22 5.05t-5.791 2.003"></path><path fill="#475757" d="M244.236 14.952q-3.483 0-5.661-2.003t-2.177-5.05q0-3.135 2.177-5.139Q240.753.76 244.236.758q3.57 0 5.791 2.002 2.22 2.003 2.22 5.139 0 3.047-2.22 5.05t-5.791 2.003"></path><path fill="#475757" d="M244.236 14.952q-3.483 0-5.661-2.003t-2.177-5.05q0-3.135 2.177-5.139Q240.753.76 244.236.758q3.57 0 5.791 2.002 2.22 2.003 2.22 5.139 0 3.047-2.22 5.05t-5.791 2.003"></path><path fill="#475757" fill-rule="evenodd" d="M274.383 57.801q-5.106 0-9.258-2.59-4.153-2.59-6.553-7.125-2.4-4.533-2.401-10.324 0-5.868 2.439-10.401 2.438-4.534 6.667-7.163 4.229-2.628 9.41-2.628 3.963 0 6.934 1.41a12.46 12.46 0 0 1 4.877 4.076V2.026h11.429v54.861h-10.134l-1.295-4.953a15.1 15.1 0 0 1-2.781 2.934q-1.64 1.334-3.924 2.133-2.286.8-5.41.8m-76.426-.914V3.55h11.43v44.5h23.011v8.838zm40.575 0V18.484h11.43v38.403zm38.822-9.067q2.82 0 4.991-1.296 2.171-1.295 3.353-3.58 1.18-2.287 1.181-5.259 0-2.97-1.181-5.257t-3.353-3.581q-2.171-1.296-4.991-1.296-2.743 0-4.914 1.296-2.172 1.295-3.391 3.581-1.22 2.286-1.219 5.181 0 2.972 1.219 5.296 1.218 2.324 3.391 3.62 2.17 1.295 4.914 1.295" clip-rule="evenodd"></path><path fill="#475757" fill-rule="evenodd" d="M274.383 57.801q-5.106 0-9.258-2.59-4.153-2.59-6.553-7.125-2.4-4.533-2.401-10.324 0-5.868 2.439-10.401 2.438-4.534 6.667-7.163 4.229-2.628 9.41-2.628 3.963 0 6.934 1.41a12.46 12.46 0 0 1 4.877 4.076V2.026h11.429v54.861h-10.134l-1.295-4.953a15.1 15.1 0 0 1-2.781 2.934q-1.64 1.334-3.924 2.133-2.286.8-5.41.8m-76.426-.914V3.55h11.43v44.5h23.011v8.838zm40.575 0V18.484h11.43v38.403zm38.822-9.067q2.82 0 4.991-1.296 2.171-1.295 3.353-3.58 1.18-2.287 1.181-5.259 0-2.97-1.181-5.257t-3.353-3.581q-2.171-1.296-4.991-1.296-2.743 0-4.914 1.296-2.172 1.295-3.391 3.581-1.22 2.286-1.219 5.181 0 2.972 1.219 5.296 1.218 2.324 3.391 3.62 2.17 1.295 4.914 1.295" clip-rule="evenodd"></path><path fill="#475757" fill-rule="evenodd" d="M274.383 57.801q-5.106 0-9.258-2.59-4.153-2.59-6.553-7.125-2.4-4.533-2.401-10.324 0-5.868 2.439-10.401 2.438-4.534 6.667-7.163 4.229-2.628 9.41-2.628 3.963 0 6.934 1.41a12.46 12.46 0 0 1 4.877 4.076V2.026h11.429v54.861h-10.134l-1.295-4.953a15.1 15.1 0 0 1-2.781 2.934q-1.64 1.334-3.924 2.133-2.286.8-5.41.8m-76.426-.914V3.55h11.43v44.5h23.011v8.838zm40.575 0V18.484h11.43v38.403zm38.822-9.067q2.82 0 4.991-1.296 2.171-1.295 3.353-3.58 1.18-2.287 1.181-5.259 0-2.97-1.181-5.257t-3.353-3.581q-2.171-1.296-4.991-1.296-2.743 0-4.914 1.296-2.172 1.295-3.391 3.581-1.22 2.286-1.219 5.181 0 2.972 1.219 5.296 1.218 2.324 3.391 3.62 2.17 1.295 4.914 1.295" clip-rule="evenodd"></path><path fill="#475757" d="M317.052 15.932c-.925.821-1.846 1.665-2.758 2.502-1.378 1.265-1.555.695-1.659-.624-.335-4.228-.596-8.827-.99-12.984-.071-.75-.312-2.245.097-2.551.352-.263 2.166.173 2.626.257l10.237 1.772c.81.116 1.679.316 2.522.453 3.184.514-.958 2.236-2.346 4.218 7.719 8.807 3.875 35.877-6.27 43.873-.401.317-1.669 1.4-2.117 1.357-.185-.416 1.037-2.006 1.582-3.12 5.158-10.54 7.224-25.59-.924-35.153"></path><path fill="#475757" d="M317.052 15.932c-.925.821-1.846 1.665-2.758 2.502-1.378 1.265-1.555.695-1.659-.624-.335-4.228-.596-8.827-.99-12.984-.071-.75-.312-2.245.097-2.551.352-.263 2.166.173 2.626.257l10.237 1.772c.81.116 1.679.316 2.522.453 3.184.514-.958 2.236-2.346 4.218 7.719 8.807 3.875 35.877-6.27 43.873-.401.317-1.669 1.4-2.117 1.357-.185-.416 1.037-2.006 1.582-3.12 5.158-10.54 7.224-25.59-.924-35.153"></path><path fill="#475757" d="M317.052 15.932c-.925.821-1.846 1.665-2.758 2.502-1.378 1.265-1.555.695-1.659-.624-.335-4.228-.596-8.827-.99-12.984-.071-.75-.312-2.245.097-2.551.352-.263 2.166.173 2.626.257l10.237 1.772c.81.116 1.679.316 2.522.453 3.184.514-.958 2.236-2.346 4.218 7.719 8.807 3.875 35.877-6.27 43.873-.401.317-1.669 1.4-2.117 1.357-.185-.416 1.037-2.006 1.582-3.12 5.158-10.54 7.224-25.59-.924-35.153"></path><path fill="#475757" fill-rule="evenodd" d="M331.314 14.593c-.687.538-.749.266-.75-.351-.001-1.98.045-4.13.013-6.077-.005-.352-.063-1.056.138-1.184.174-.11 1.002.16 1.213.216l4.698 1.197c.373.083.77.208 1.157.302.667.163-.297 1.165-1.673 2.304 2.182 3.511.001 12.104-3.381 14.306-.15.098-.626.436-.781.406-.052-.15.425-.666.65-1.038.221-.363.387-.67.555-1.048.864-1.936 1.314-8.39.063-10.411-.919.67-1.67 1.196-1.902 1.378" clip-rule="evenodd"></path><path fill="#475757" fill-rule="evenodd" d="M331.314 14.593c-.687.538-.749.266-.75-.351-.001-1.98.045-4.13.013-6.077-.005-.352-.063-1.056.138-1.184.174-.11 1.002.16 1.213.216l4.698 1.197c.373.083.77.208 1.157.302.667.163-.297 1.165-1.673 2.304 2.182 3.511.001 12.104-3.381 14.306-.15.098-.626.436-.781.406-.052-.15.425-.666.65-1.038.221-.363.387-.67.555-1.048.864-1.936 1.314-8.39.063-10.411-.919.67-1.67 1.196-1.902 1.378" clip-rule="evenodd"></path><path fill="#475757" fill-rule="evenodd" d="M331.314 14.593c-.687.538-.749.266-.75-.351-.001-1.98.045-4.13.013-6.077-.005-.352-.063-1.056.138-1.184.174-.11 1.002.16 1.213.216l4.698 1.197c.373.083.77.208 1.157.302.667.163-.297 1.165-1.673 2.304 2.182 3.511.001 12.104-3.381 14.306-.15.098-.626.436-.781.406-.052-.15.425-.666.65-1.038.221-.363.387-.67.555-1.048.864-1.936 1.314-8.39.063-10.411-.919.67-1.67 1.196-1.902 1.378M308.341 36.553c-.91.499-1.821 1.016-2.723 1.53-1.364.776-1.402.276-1.24-.822.518-3.52 1.166-7.329 1.622-10.801.083-.627.165-1.894.558-2.068.337-.15 1.738.548 2.099.702l8.038 3.367c.641.246 1.313.572 1.977.842 2.507 1.017-1.202 1.65-2.708 3.01 5.004 9.283-.989 20.001-10.055 24.295-.387.183-1.626.83-1.984.712-.074-.374 1.223-1.446 1.878-2.255a21.5 21.5 0 0 0 1.653-2.307c2.865-4.624 3.905-10.706.885-16.205" clip-rule="evenodd"></path><path fill="#475757" fill-rule="evenodd" d="M308.341 36.553c-.91.499-1.821 1.016-2.723 1.53-1.364.776-1.402.276-1.24-.822.518-3.52 1.166-7.329 1.622-10.801.083-.627.165-1.894.558-2.068.337-.15 1.738.548 2.099.702l8.038 3.367c.641.246 1.313.572 1.977.842 2.507 1.017-1.202 1.65-2.708 3.01 5.004 9.283-.989 20.001-10.055 24.295-.387.183-1.626.83-1.984.712-.074-.374 1.223-1.446 1.878-2.255a21.5 21.5 0 0 0 1.653-2.307c2.865-4.624 3.905-10.706.885-16.205" clip-rule="evenodd"></path><path fill="#475757" fill-rule="evenodd" d="M308.341 36.553c-.91.499-1.821 1.016-2.723 1.53-1.364.776-1.402.276-1.24-.822.518-3.52 1.166-7.329 1.622-10.801.083-.627.165-1.894.558-2.068.337-.15 1.738.548 2.099.702l8.038 3.367c.641.246 1.313.572 1.977.842 2.507 1.017-1.202 1.65-2.708 3.01 5.004 9.283-.989 20.001-10.055 24.295-.387.183-1.626.83-1.984.712-.074-.374 1.223-1.446 1.878-2.255a21.5 21.5 0 0 0 1.653-2.307c2.865-4.624 3.905-10.706.885-16.205" clip-rule="evenodd"></path></svg>